<?xml version="1.0" encoding="utf-8"?>
<!-- Generator: Adobe Illustrator 23.0.3, SVG Export Plug-In . SVG Version: 6.00 Build 0)  -->
<svg version="1.1" id="Layer_1" xmlns="http://www.w3.org/2000/svg" xmlns:xlink="http://www.w3.org/1999/xlink" x="0px" y="0px"
	 viewBox="0 0 360 360" style="enable-background:new 0 0 360 360;" xml:space="preserve">
<style type="text/css">
	.st0{fill:#FFFFFF;}
	.st1{fill:#262626;stroke:#262626;stroke-width:1.25;stroke-linejoin:round;}
	.st2{fill:#262626;}
	.st3{clip-path:url(#SVGID_2_);fill:#9E0142;stroke:#FFFFFF;}
	.st4{clip-path:url(#SVGID_4_);fill:#9E0142;stroke:#FFFFFF;}
	.st5{clip-path:url(#SVGID_6_);fill:#9E0142;stroke:#FFFFFF;}
	.st6{clip-path:url(#SVGID_8_);fill:#9E0142;stroke:#FFFFFF;}
	.st7{clip-path:url(#SVGID_10_);fill:#9E0142;stroke:#FFFFFF;}
	.st8{clip-path:url(#SVGID_12_);fill:#9E0142;stroke:#FFFFFF;}
	.st9{clip-path:url(#SVGID_14_);fill:#9E0142;stroke:#FFFFFF;}
	.st10{clip-path:url(#SVGID_16_);fill:#9E0142;stroke:#FFFFFF;}
	.st11{clip-path:url(#SVGID_18_);fill:#9E0142;stroke:#FFFFFF;}
	.st12{clip-path:url(#SVGID_20_);fill:#9E0142;stroke:#FFFFFF;}
	.st13{fill:none;stroke:#262626;stroke-width:1.25;stroke-linecap:square;}
</style>
<g id="figure_1">
	<g id="patch_1">
		<path class="st0" d="M51.3,308.7H360V0H51.3V308.7z"/>
	</g>
	<g id="axes_1">
		<g id="patch_2">
			<path class="st0" d="M89.9,270.1h239.2V37H89.9V270.1z"/>
		</g>
		<g id="matplotlib.axis_1">
			<g id="xtick_1">
				<g id="line2d_1">
					<g>
						<g>
							<path id="m31f3e01a5a" class="st1" d="M101.9,270.1v5.1"/>
						</g>
					</g>
				</g>
				<g id="text_1">
					<g transform="translate(61.79625 394.193594)rotate(-90)scale(0.11 -0.11)">
						<g>
							<path id="ArialMT-43" class="st2" d="M561.5-365.1l8.1-2c-1.7-6.7-4.8-11.8-9.2-15.3c-4.4-3.5-9.8-5.3-16.2-5.3
								c-6.6,0-12,1.3-16.1,4c-4.1,2.7-7.3,6.6-9.5,11.7c-2.2,5.1-3.2,10.6-3.2,16.5c0,6.4,1.2,12,3.7,16.7
								c2.4,4.8,5.9,8.4,10.4,10.8c4.5,2.5,9.5,3.7,14.9,3.7c6.1,0,11.3-1.6,15.5-4.7c4.2-3.1,7.1-7.5,8.8-13.2l-8-1.9
								c-1.4,4.5-3.5,7.7-6.2,9.8c-2.7,2-6.1,3.1-10.2,3.1c-4.7,0-8.7-1.1-11.8-3.4c-3.2-2.3-5.4-5.3-6.7-9.1
								c-1.3-3.8-1.9-7.7-1.9-11.8c0-5.2,0.8-9.8,2.3-13.7c1.5-3.9,3.9-6.8,7.1-8.7c3.2-1.9,6.7-2.9,10.4-2.9
								c4.5,0,8.4,1.3,11.5,3.9C558.2-374.2,560.4-370.3,561.5-365.1z"/>
						</g>
						<g>
							<path id="ArialMT-6f" class="st2" d="M575.8-364.4c0,8.2,2.3,14.3,6.9,18.3c3.8,3.3,8.5,4.9,14,4.9c6.1,0,11.1-2,15-6
								c3.9-4,5.8-9.5,5.8-16.6c0-5.7-0.9-10.2-2.6-13.5c-1.7-3.3-4.2-5.8-7.5-7.6c-3.3-1.8-6.9-2.7-10.7-2.7c-6.2,0-11.3,2-15.1,6
								C577.8-377.6,575.8-371.9,575.8-364.4z M583.6-364.4c0-5.7,1.2-9.9,3.7-12.8c2.5-2.8,5.6-4.2,9.4-4.2c3.7,0,6.9,1.4,9.3,4.3
								c2.5,2.8,3.7,7.2,3.7,13c0,5.5-1.3,9.7-3.8,12.5c-2.5,2.8-5.6,4.2-9.3,4.2c-3.8,0-6.9-1.4-9.4-4.2
								C584.8-354.4,583.6-358.7,583.6-364.4z"/>
						</g>
						<g>
							<path id="ArialMT-6d" class="st2" d="M626.3-386.6v44.5h6.7v-6.2c1.4,2.2,3.2,3.9,5.6,5.3c2.3,1.3,5,2,7.9,2
								c3.3,0,6-0.7,8.1-2s3.6-3.3,4.5-5.7c3.5,5.2,8.1,7.8,13.7,7.8c4.4,0,7.8-1.2,10.2-3.7c2.4-2.4,3.6-6.2,3.6-11.3v-30.5h-7.5
								v28c0,3-0.2,5.2-0.7,6.5c-0.5,1.3-1.4,2.4-2.7,3.2c-1.3,0.8-2.8,1.2-4.5,1.2c-3.1,0-5.7-1-7.8-3.1c-2.1-2.1-3.1-5.4-3.1-10
								v-25.8h-7.5v28.9c0,3.3-0.6,5.9-1.8,7.5c-1.2,1.7-3.2,2.5-6,2.5c-2.1,0-4.1-0.6-5.9-1.7c-1.8-1.1-3.1-2.8-3.9-4.9
								c-0.8-2.1-1.2-5.2-1.2-9.3v-23.1H626.3z"/>
						</g>
						<g>
							<path id="ArialMT-70" class="st2" d="M697.8-403.7v61.5h6.9v-5.8c1.6,2.3,3.5,4,5.5,5.1c2,1.1,4.5,1.7,7.4,1.7
								c3.8,0,7.1-1,10-2.9c2.9-2,5.1-4.7,6.6-8.3c1.5-3.6,2.2-7.5,2.2-11.7c0-4.5-0.8-8.6-2.5-12.3c-1.6-3.6-4-6.4-7.1-8.4
								c-3.1-1.9-6.4-2.9-9.8-2.9c-2.5,0-4.8,0.5-6.8,1.6c-2,1.1-3.6,2.4-4.9,4v-21.6H697.8z M704.6-364.6c0-5.7,1.2-10,3.5-12.7
								c2.3-2.7,5.1-4.1,8.4-4.1c3.3,0,6.2,1.4,8.6,4.2c2.4,2.8,3.6,7.2,3.6,13.2c0,5.7-1.2,9.9-3.5,12.7c-2.3,2.8-5.1,4.2-8.3,4.2
								c-3.2,0-6.1-1.5-8.5-4.5C705.8-354.6,704.6-358.9,704.6-364.6z"/>
						</g>
						<g>
							<path id="ArialMT-61" class="st2" d="M774.5-381.1c-2.8-2.4-5.5-4-8.1-5c-2.6-1-5.3-1.5-8.3-1.5c-4.9,0-8.6,1.2-11.3,3.6
								s-3.9,5.4-3.9,9.1c0,2.2,0.5,4.2,1.5,6c1,1.8,2.3,3.3,3.9,4.3c1.6,1.1,3.4,1.9,5.4,2.5c1.5,0.4,3.7,0.8,6.7,1.1
								c6.1,0.7,10.6,1.6,13.4,2.6c0,1,0,1.7,0,2c0,3.1-0.7,5.2-2.1,6.5c-1.9,1.7-4.8,2.5-8.6,2.5c-3.5,0-6.2-0.6-7.9-1.9
								s-2.9-3.4-3.8-6.6l-7.4,1c0.7,3.2,1.8,5.7,3.3,7.6s3.8,3.4,6.7,4.5c2.9,1.1,6.3,1.6,10.1,1.6c3.8,0,6.9-0.4,9.2-1.3
								c2.4-0.9,4.1-2,5.2-3.4c1.1-1.3,1.9-3.1,2.3-5.1c0.3-1.3,0.4-3.6,0.4-6.9v-10c0-7,0.2-11.4,0.5-13.3c0.3-1.8,1-3.6,1.9-5.3
								H776C775.2-385.1,774.7-383.2,774.5-381.1z M773.8-364.3c-2.7-1.1-6.8-2.1-12.3-2.9c-3.1-0.4-5.3-1-6.6-1.5
								c-1.3-0.6-2.3-1.4-3-2.4c-0.7-1.1-1-2.3-1-3.6c0-2,0.8-3.7,2.3-5c1.5-1.3,3.8-2,6.7-2c2.9,0,5.5,0.6,7.7,1.9s3.9,3,5,5.2
								c0.8,1.7,1.2,4.2,1.2,7.5V-364.3z"/>
						</g>
						<g>
							<path id="ArialMT-6e" class="st2" d="M793.1-386.6v44.5h6.8v-6.3c3.3,4.9,8,7.3,14.1,7.3c2.7,0,5.1-0.5,7.4-1.4
								c2.3-1,3.9-2.2,5.1-3.8c1.1-1.6,1.9-3.4,2.3-5.6c0.3-1.4,0.4-3.8,0.4-7.3v-27.3h-7.5v27c0,3.1-0.3,5.4-0.9,6.9
								c-0.6,1.5-1.6,2.7-3.1,3.6c-1.5,0.9-3.2,1.4-5.3,1.4c-3.2,0-6-1-8.3-3.1s-3.5-5.9-3.5-11.6v-24.3H793.1z"/>
						</g>
						<g>
							<path id="ArialMT-79" class="st2" d="M840.5-403.7l-0.8,7.1c1.7-0.4,3.1-0.7,4.3-0.7c1.7,0,3,0.3,4,0.8
								c1,0.6,1.8,1.3,2.5,2.3c0.5,0.8,1.2,2.6,2.3,5.6c0.1,0.4,0.4,1,0.7,1.8l-16.9,44.5h8.1l9.3-25.7c1.2-3.3,2.3-6.7,3.2-10.3
								c0.9,3.5,1.9,6.8,3.1,10.1l9.5,25.9h7.5l-16.9-45.2c-1.8-4.9-3.2-8.2-4.2-10.1c-1.3-2.5-2.9-4.3-4.6-5.5
								c-1.7-1.2-3.8-1.7-6.2-1.7C843.9-404.7,842.3-404.4,840.5-403.7z"/>
						</g>
						<g>
							<path id="ArialMT-20" class="st2" d="M878-386.6"/>
						</g>
						<g>
							<path id="ArialMT-41" class="st2" d="M901.7-386.6l23.6,61.4h8.7l25.1-61.4h-9.2l-7.2,18.6H917l-6.8-18.6H901.7z
								 M919.4-361.4h20.8l-6.4,17c-2,5.2-3.4,9.4-4.4,12.7c-0.8-3.9-1.9-7.8-3.3-11.7L919.4-361.4z"/>
						</g>
						<g>
							<path id="ArialMT-67" class="st2" d="M963.2-390.3l7.3-1.1c0.3-2.3,1.2-3.9,2.5-4.9c1.9-1.4,4.4-2.1,7.7-2.1
								c3.5,0,6.2,0.7,8.1,2.1c1.9,1.4,3.2,3.3,3.9,5.9c0.4,1.5,0.6,4.8,0.5,9.7c-3.3-3.9-7.4-5.8-12.3-5.8
								c-6.1,0-10.9,2.2-14.2,6.6c-3.3,4.4-5,9.7-5,15.9c0,4.2,0.8,8.2,2.3,11.7c1.5,3.6,3.8,6.4,6.7,8.3c2.9,2,6.4,2.9,10.3,2.9
								c5.2,0,9.6-2.1,13-6.4v5.4h6.9v-38.4c0-6.9-0.7-11.8-2.1-14.7c-1.4-2.9-3.6-5.2-6.7-6.8c-3.1-1.7-6.8-2.5-11.3-2.5
								c-5.3,0-9.6,1.2-12.8,3.6C964.7-398.7,963.1-395.1,963.2-390.3z M969.5-363.6c0-5.8,1.2-10.1,3.5-12.8c2.3-2.7,5.2-4,8.7-4
								c3.5,0,6.4,1.3,8.7,4c2.3,2.7,3.5,6.9,3.5,12.5c0,5.4-1.2,9.5-3.6,12.3c-2.4,2.8-5.3,4.2-8.7,4.2c-3.3,0-6.2-1.4-8.5-4.1
								C970.6-354.2,969.5-358.2,969.5-363.6z"/>
						</g>
						<g>
							<path id="ArialMT-65" class="st2" d="M1042.7-372.3l7.8-1c-1.2-4.5-3.5-8.1-6.8-10.6c-3.3-2.5-7.6-3.8-12.7-3.8
								c-6.5,0-11.7,2-15.5,6c-3.8,4-5.7,9.6-5.7,16.9c0,7.5,1.9,13.3,5.8,17.4c3.9,4.1,8.9,6.2,15,6.2c5.9,0,10.8-2,14.6-6.1
								s5.7-9.7,5.7-17.1c0-0.4,0-1.1,0-2h-33.2c0.3-4.9,1.7-8.6,4.1-11.2c2.5-2.6,5.6-3.9,9.3-3.9c2.8,0,5.1,0.7,7.1,2.2
								C1040-377.8,1041.6-375.5,1042.7-372.3z M1018-360.1h24.8c-0.3,3.7-1.3,6.5-2.8,8.4c-2.4,2.9-5.5,4.4-9.3,4.4
								c-3.5,0-6.4-1.2-8.7-3.5C1019.5-353.1,1018.2-356.2,1018-360.1z"/>
						</g>
					</g>
				</g>
			</g>
			<g id="xtick_2">
				<g id="line2d_2">
					<g>
						<g>
							<path class="st1" d="M125.8,270.1v5.1"/>
						</g>
					</g>
				</g>
				<g id="text_2">
					<g transform="translate(89.629219 356.295156)rotate(-90)scale(0.11 -0.11)">
						<g>
							<path id="ArialMT-52" class="st2" d="M468.7-350.5v61.4h27.2c5.5,0,9.6-0.6,12.5-1.7c2.8-1.1,5.1-3,6.8-5.8
								c1.7-2.8,2.6-5.9,2.6-9.2c0-4.3-1.4-8-4.2-11c-2.8-3-7.2-4.9-13.1-5.7c2.2-1,3.8-2,4.9-3.1c2.4-2.2,4.6-4.9,6.7-8.2
								l10.7-16.7h-10.2l-8.1,12.8c-2.4,3.7-4.3,6.5-5.9,8.5c-1.5,2-2.9,3.3-4.1,4.1c-1.2,0.8-2.5,1.3-3.7,1.6
								c-0.9,0.2-2.4,0.3-4.5,0.3h-9.4v-27.2H468.7z M476.8-316.3h17.5c3.7,0,6.6,0.4,8.7,1.2c2.1,0.8,3.7,2,4.8,3.7
								s1.6,3.5,1.6,5.5c0,2.9-1.1,5.3-3.2,7.2c-2.1,1.9-5.4,2.8-10,2.8h-19.4V-316.3z"/>
						</g>
						<g>
							<path class="st2" d="M558.5-345.1c-2.8-2.4-5.5-4-8.1-5c-2.6-1-5.3-1.5-8.3-1.5c-4.9,0-8.6,1.2-11.3,3.6
								c-2.6,2.4-3.9,5.4-3.9,9.1c0,2.2,0.5,4.2,1.5,6c1,1.8,2.3,3.3,3.9,4.3c1.6,1.1,3.4,1.9,5.4,2.5c1.5,0.4,3.7,0.8,6.7,1.1
								c6.1,0.7,10.6,1.6,13.4,2.6c0,1,0,1.7,0,2c0,3.1-0.7,5.2-2.1,6.5c-1.9,1.7-4.8,2.5-8.6,2.5c-3.5,0-6.2-0.6-7.9-1.9
								c-1.7-1.2-2.9-3.4-3.8-6.6l-7.4,1c0.7,3.2,1.8,5.7,3.3,7.6c1.5,1.9,3.8,3.4,6.7,4.5c2.9,1.1,6.3,1.6,10.1,1.6
								c3.8,0,6.9-0.4,9.2-1.3c2.4-0.9,4.1-2,5.2-3.4c1.1-1.3,1.9-3.1,2.3-5.1c0.3-1.3,0.4-3.6,0.4-6.9v-10c0-7,0.2-11.4,0.5-13.3
								c0.3-1.8,1-3.6,1.9-5.3H560C559.3-349,558.8-347.1,558.5-345.1z M557.9-328.2c-2.7-1.1-6.8-2.1-12.3-2.9
								c-3.1-0.4-5.3-1-6.6-1.5c-1.3-0.6-2.3-1.4-3-2.4c-0.7-1.1-1-2.3-1-3.6c0-2,0.8-3.7,2.3-5c1.5-1.3,3.8-2,6.7-2
								c2.9,0,5.5,0.6,7.7,1.9c2.3,1.3,3.9,3,5,5.2c0.8,1.7,1.2,4.2,1.2,7.5V-328.2z"/>
						</g>
						<g>
							<path id="ArialMT-74" class="st2" d="M593.6-343.8l1.1-6.7c-2.1-0.4-4-0.7-5.7-0.7c-2.7,0-4.9,0.4-6.4,1.3
								c-1.5,0.9-2.6,2-3.2,3.4c-0.6,1.4-0.9,4.4-0.9,8.9v25.6h-5.5v5.9h5.5v11l7.5,4.5v-15.5h7.6v-5.9h-7.6v-26
								c0-2.2,0.1-3.5,0.4-4.2c0.3-0.6,0.7-1.1,1.3-1.5c0.6-0.4,1.5-0.5,2.6-0.5C591.2-344.1,592.3-344,593.6-343.8z"/>
						</g>
						<g>
							<path id="ArialMT-69" class="st2" d="M601.1-297.8v8.7h7.5v-8.7H601.1z M601.1-350.5v44.5h7.5v-44.5H601.1z"/>
						</g>
						<g>
							<path class="st2" d="M620.1-350.5v44.5h6.8v-6.3c3.3,4.9,8,7.3,14.1,7.3c2.7,0,5.1-0.5,7.4-1.4c2.3-1,3.9-2.2,5.1-3.8
								c1.1-1.6,1.9-3.4,2.3-5.6c0.3-1.4,0.4-3.8,0.4-7.3v-27.3h-7.5v27c0,3.1-0.3,5.4-0.9,6.9c-0.6,1.5-1.6,2.7-3.1,3.6
								c-1.5,0.9-3.2,1.4-5.3,1.4c-3.2,0-6-1-8.3-3.1c-2.3-2-3.5-5.9-3.5-11.6v-24.3H620.1z"/>
						</g>
						<g>
							<path class="st2" d="M666.4-354.2l7.3-1.1c0.3-2.3,1.2-3.9,2.5-4.9c1.9-1.4,4.4-2.1,7.7-2.1c3.5,0,6.2,0.7,8.1,2.1
								c1.9,1.4,3.2,3.3,3.9,5.9c0.4,1.5,0.6,4.8,0.5,9.7c-3.3-3.9-7.4-5.8-12.3-5.8c-6.1,0-10.9,2.2-14.2,6.6
								c-3.3,4.4-5,9.7-5,15.9c0,4.2,0.8,8.2,2.3,11.7c1.5,3.6,3.8,6.4,6.7,8.3c2.9,2,6.4,2.9,10.3,2.9c5.2,0,9.6-2.1,13-6.4v5.4
								h6.9v-38.4c0-6.9-0.7-11.8-2.1-14.7c-1.4-2.9-3.6-5.2-6.7-6.8c-3.1-1.7-6.8-2.5-11.3-2.5c-5.3,0-9.6,1.2-12.8,3.6
								C667.8-362.6,666.3-359,666.4-354.2z M672.6-327.5c0-5.8,1.2-10.1,3.5-12.8c2.3-2.7,5.2-4,8.7-4c3.5,0,6.4,1.3,8.7,4
								c2.3,2.7,3.5,6.9,3.5,12.5c0,5.4-1.2,9.5-3.6,12.3c-2.4,2.8-5.3,4.2-8.7,4.2c-3.3,0-6.2-1.4-8.5-4.1
								C673.8-318.1,672.6-322.2,672.6-327.5z"/>
						</g>
					</g>
				</g>
			</g>
			<g id="xtick_3">
				<g id="line2d_3">
					<g>
						<g>
							<path class="st1" d="M149.7,270.1v5.1"/>
						</g>
					</g>
				</g>
				<g id="text_3">
					<g transform="translate(117.593672 406.420781)rotate(-90)scale(0.11 -0.11)">
						<g>
							<path id="ArialMT-4d" class="st2" d="M533.3-314.3v61.4h12.2l14.5-43.4c1.3-4.1,2.3-7.1,2.9-9.1c0.7,2.2,1.8,5.5,3.3,9.8
								l14.7,42.7h10.9v-61.4H584v51.4l-17.8-51.4h-7.3L541.1-262v-52.2H533.3z"/>
						</g>
						<g>
							<path class="st2" d="M633-308.8c-2.8-2.4-5.5-4-8.1-5c-2.6-1-5.3-1.5-8.3-1.5c-4.9,0-8.6,1.2-11.3,3.6
								c-2.6,2.4-3.9,5.4-3.9,9.1c0,2.2,0.5,4.2,1.5,6c1,1.8,2.3,3.3,3.9,4.3c1.6,1.1,3.4,1.9,5.4,2.5c1.5,0.4,3.7,0.8,6.7,1.1
								c6.1,0.7,10.6,1.6,13.4,2.6c0,1,0,1.7,0,2c0,3.1-0.7,5.2-2.1,6.5c-1.9,1.7-4.8,2.5-8.6,2.5c-3.5,0-6.2-0.6-7.9-1.9
								c-1.7-1.2-2.9-3.4-3.8-6.6l-7.4,1c0.7,3.2,1.8,5.7,3.3,7.6c1.5,1.9,3.8,3.4,6.7,4.5c2.9,1.1,6.3,1.6,10.1,1.6
								c3.8,0,6.9-0.4,9.2-1.3c2.4-0.9,4.1-2,5.2-3.4c1.1-1.3,1.9-3.1,2.3-5.1c0.3-1.3,0.4-3.6,0.4-6.9v-10c0-7,0.2-11.4,0.5-13.3
								c0.3-1.8,1-3.6,1.9-5.3h-7.9C633.7-312.7,633.2-310.9,633-308.8z M632.4-292c-2.7-1.1-6.8-2.1-12.3-2.9
								c-3.1-0.4-5.3-1-6.6-1.5c-1.3-0.6-2.3-1.4-3-2.4c-0.7-1.1-1-2.3-1-3.6c0-2,0.8-3.7,2.3-5c1.5-1.3,3.8-2,6.7-2
								c2.9,0,5.5,0.6,7.7,1.9c2.3,1.3,3.9,3,5,5.2c0.8,1.7,1.2,4.2,1.2,7.5V-292z"/>
						</g>
						<g>
							<path id="ArialMT-78" class="st2" d="M646.7-314.3l16.2,23.1l-15,21.4h9.4l6.8-10.4c1.3-2,2.3-3.6,3.1-5
								c1.2,1.8,2.4,3.5,3.4,4.9l7.5,10.5h9l-15.4-20.9l16.5-23.5H679l-9.1,13.8l-2.4,3.7l-11.7-17.5H646.7z"/>
						</g>
						<g>
							<path id="ArialMT-2e" class="st2" d="M696.7-314.3v8.6h8.6v-8.6H696.7z"/>
						</g>
						<g>
							<path class="st2" d="M712.7-314.3"/>
						</g>
						<g>
							<path id="ArialMT-45" class="st2" d="M743.3-314.3v61.4h44.4v-7.2h-36.3v-18.8h33.9v-7.2h-33.9V-307h37.7v-7.2H743.3z"/>
						</g>
						<g>
							<path class="st2" d="M794.4-314.3l16.2,23.1l-15,21.4h9.4l6.8-10.4c1.3-2,2.3-3.6,3.1-5c1.2,1.8,2.4,3.5,3.4,4.9l7.5,10.5h9
								l-15.4-20.9l16.5-23.5h-9.2l-9.1,13.8l-2.4,3.7l-11.7-17.5H794.4z"/>
						</g>
						<g>
							<path class="st2" d="M842.3-331.3v61.5h6.9v-5.8c1.6,2.3,3.5,4,5.5,5.1c2,1.1,4.5,1.7,7.4,1.7c3.8,0,7.1-1,10-2.9
								s5.1-4.7,6.6-8.3c1.5-3.6,2.2-7.5,2.2-11.7c0-4.5-0.8-8.6-2.5-12.3c-1.6-3.6-4-6.4-7.1-8.4c-3.1-1.9-6.4-2.9-9.8-2.9
								c-2.5,0-4.8,0.5-6.8,1.6c-2,1.1-3.6,2.4-4.9,4v-21.6H842.3z M849.1-292.3c0-5.7,1.2-10,3.5-12.7c2.3-2.7,5.1-4.1,8.4-4.1
								c3.3,0,6.2,1.4,8.6,4.2c2.4,2.8,3.6,7.2,3.6,13.2c0,5.7-1.2,9.9-3.5,12.7c-2.3,2.8-5.1,4.2-8.3,4.2c-3.2,0-6.1-1.5-8.5-4.5
								C850.3-282.2,849.1-286.6,849.1-292.3z"/>
						</g>
						<g>
							<path class="st2" d="M920.4-300l7.8-1c-1.2-4.5-3.5-8.1-6.8-10.6c-3.3-2.5-7.6-3.8-12.7-3.8c-6.5,0-11.7,2-15.5,6
								c-3.8,4-5.7,9.6-5.7,16.9c0,7.5,1.9,13.3,5.8,17.4c3.9,4.1,8.9,6.2,15,6.2c5.9,0,10.8-2,14.6-6.1s5.7-9.7,5.7-17.1
								c0-0.4,0-1.1,0-2h-33.2c0.3-4.9,1.7-8.6,4.1-11.2c2.5-2.6,5.6-3.9,9.3-3.9c2.8,0,5.1,0.7,7.1,2.2
								C917.7-305.5,919.2-303.1,920.4-300z M895.6-287.8h24.8c-0.3,3.7-1.3,6.5-2.8,8.4c-2.4,2.9-5.5,4.4-9.3,4.4
								c-3.5,0-6.4-1.2-8.7-3.5C897.2-280.8,895.9-283.9,895.6-287.8z"/>
						</g>
						<g>
							<path id="ArialMT-72" class="st2" d="M937.5-314.3v44.5h6.8v-6.7c1.7,3.2,3.3,5.2,4.8,6.2c1.5,1,3.1,1.5,4.8,1.5
								c2.5,0,5.1-0.8,7.7-2.4l-2.6-7c-1.8,1.1-3.7,1.6-5.5,1.6c-1.7,0-3.1-0.5-4.4-1.5s-2.2-2.4-2.8-4.1c-0.8-2.7-1.3-5.6-1.3-8.8
								v-23.3H937.5z"/>
						</g>
						<g>
							<path class="st2" d="M966.2-261.6v8.7h7.5v-8.7H966.2z M966.2-314.3v44.5h7.5v-44.5H966.2z"/>
						</g>
						<g>
							<path class="st2" d="M1015.7-300l7.8-1c-1.2-4.5-3.5-8.1-6.8-10.6c-3.3-2.5-7.6-3.8-12.7-3.8c-6.5,0-11.7,2-15.5,6
								c-3.8,4-5.7,9.6-5.7,16.9c0,7.5,1.9,13.3,5.8,17.4c3.9,4.1,8.9,6.2,15,6.2c5.9,0,10.8-2,14.6-6.1s5.7-9.7,5.7-17.1
								c0-0.4,0-1.1,0-2h-33.2c0.3-4.9,1.7-8.6,4.1-11.2c2.5-2.6,5.6-3.9,9.3-3.9c2.8,0,5.1,0.7,7.1,2.2
								C1013-305.5,1014.5-303.1,1015.7-300z M990.9-287.8h24.8c-0.3,3.7-1.3,6.5-2.8,8.4c-2.4,2.9-5.5,4.4-9.3,4.4
								c-3.5,0-6.4-1.2-8.7-3.5C992.5-280.8,991.2-283.9,990.9-287.8z"/>
						</g>
						<g>
							<path class="st2" d="M1032.9-314.3v44.5h6.8v-6.3c3.3,4.9,8,7.3,14.1,7.3c2.7,0,5.1-0.5,7.4-1.4c2.3-1,3.9-2.2,5.1-3.8
								c1.1-1.6,1.9-3.4,2.3-5.6c0.3-1.4,0.4-3.8,0.4-7.3v-27.3h-7.5v27c0,3.1-0.3,5.4-0.9,6.9c-0.6,1.5-1.6,2.7-3.1,3.6
								c-1.5,0.9-3.2,1.4-5.3,1.4c-3.2,0-6-1-8.3-3.1c-2.3-2-3.5-5.9-3.5-11.6v-24.3H1032.9z"/>
						</g>
						<g>
							<path id="ArialMT-63" class="st2" d="M1109.6-298l7.4-1c-0.8-5.1-2.9-9.1-6.2-12c-3.3-2.9-7.4-4.3-12.3-4.3
								c-6.1,0-11,2-14.7,6c-3.7,4-5.5,9.7-5.5,17.1c0,4.8,0.8,9,2.4,12.6c1.6,3.6,4,6.3,7.3,8.1c3.3,1.8,6.8,2.7,10.6,2.7
								c4.8,0,8.8-1.2,11.8-3.7c3.1-2.4,5-5.9,5.9-10.4l-7.3-1.1c-0.7,3-1.9,5.2-3.7,6.7c-1.8,1.5-3.9,2.3-6.4,2.3
								c-3.8,0-6.9-1.4-9.3-4.1c-2.4-2.7-3.6-7-3.6-12.9c0-6,1.1-10.3,3.4-13c2.3-2.7,5.3-4.1,9-4.1c3,0,5.4,0.9,7.4,2.7
								C1107.8-304.6,1109.1-301.8,1109.6-298z"/>
						</g>
						<g>
							<path class="st2" d="M1153.9-300l7.8-1c-1.2-4.5-3.5-8.1-6.8-10.6c-3.3-2.5-7.6-3.8-12.7-3.8c-6.5,0-11.7,2-15.5,6
								c-3.8,4-5.7,9.6-5.7,16.9c0,7.5,1.9,13.3,5.8,17.4c3.9,4.1,8.9,6.2,15,6.2c5.9,0,10.8-2,14.6-6.1s5.7-9.7,5.7-17.1
								c0-0.4,0-1.1,0-2h-33.2c0.3-4.9,1.7-8.6,4.1-11.2c2.5-2.6,5.6-3.9,9.3-3.9c2.8,0,5.1,0.7,7.1,2.2
								C1151.2-305.5,1152.7-303.1,1153.9-300z M1129.1-287.8h24.8c-0.3,3.7-1.3,6.5-2.8,8.4c-2.4,2.9-5.5,4.4-9.3,4.4
								c-3.5,0-6.4-1.2-8.7-3.5C1130.7-280.8,1129.4-283.9,1129.1-287.8z"/>
						</g>
					</g>
				</g>
			</g>
			<g id="xtick_4">
				<g id="line2d_4">
					<g>
						<g>
							<path class="st1" d="M173.6,270.1v5.1"/>
						</g>
					</g>
				</g>
				<g id="text_4">
					<g transform="translate(145.493672 368.529219)rotate(-90)scale(0.11 -0.11)">
						<g>
							<path class="st2" d="M484.5-278.1v61.4h27.2c5.5,0,9.6-0.6,12.5-1.7c2.8-1.1,5.1-3,6.8-5.8c1.7-2.8,2.6-5.9,2.6-9.2
								c0-4.3-1.4-8-4.2-11c-2.8-3-7.2-4.9-13.1-5.7c2.2-1,3.8-2,4.9-3.1c2.4-2.2,4.6-4.9,6.7-8.2l10.7-16.7h-10.2l-8.1,12.8
								c-2.4,3.7-4.3,6.5-5.9,8.5c-1.5,2-2.9,3.3-4.1,4.1c-1.2,0.8-2.5,1.3-3.7,1.6c-0.9,0.2-2.4,0.3-4.5,0.3h-9.4v-27.2H484.5z
								 M492.7-243.8h17.5c3.7,0,6.6,0.4,8.7,1.2c2.1,0.8,3.7,2,4.8,3.7c1.1,1.7,1.6,3.5,1.6,5.5c0,2.9-1.1,5.3-3.2,7.2
								c-2.1,1.9-5.4,2.8-10,2.8h-19.4V-243.8z"/>
						</g>
						<g>
							<path class="st2" d="M575.8-263.8l7.8-1c-1.2-4.5-3.5-8.1-6.8-10.6c-3.3-2.5-7.6-3.8-12.7-3.8c-6.5,0-11.7,2-15.5,6
								c-3.8,4-5.7,9.6-5.7,16.9c0,7.5,1.9,13.3,5.8,17.4c3.9,4.1,8.9,6.2,15,6.2c5.9,0,10.8-2,14.6-6.1c3.8-4,5.7-9.7,5.7-17.1
								c0-0.4,0-1.1,0-2h-33.2c0.3-4.9,1.7-8.6,4.1-11.2c2.5-2.6,5.6-3.9,9.3-3.9c2.8,0,5.1,0.7,7.1,2.2
								C573.1-269.3,574.7-267,575.8-263.8z M551.1-251.6h24.8c-0.3,3.7-1.3,6.5-2.8,8.4c-2.4,2.9-5.5,4.4-9.3,4.4
								c-3.5,0-6.4-1.2-8.7-3.5S551.3-247.7,551.1-251.6z"/>
						</g>
						<g>
							<path id="ArialMT-76" class="st2" d="M605.4-278.1l-16.9,44.5h8l9.6-26.6c1-2.9,2-5.9,2.8-8.9c0.7,2.3,1.6,5.2,2.8,8.5
								l9.9,27.1h7.7l-16.8-44.5H605.4z"/>
						</g>
						<g>
							<path class="st2" d="M666.4-263.8l7.8-1c-1.2-4.5-3.5-8.1-6.8-10.6c-3.3-2.5-7.6-3.8-12.7-3.8c-6.5,0-11.7,2-15.5,6
								c-3.8,4-5.7,9.6-5.7,16.9c0,7.5,1.9,13.3,5.8,17.4c3.9,4.1,8.9,6.2,15,6.2c5.9,0,10.8-2,14.6-6.1c3.8-4,5.7-9.7,5.7-17.1
								c0-0.4,0-1.1,0-2h-33.2c0.3-4.9,1.7-8.6,4.1-11.2c2.5-2.6,5.6-3.9,9.3-3.9c2.8,0,5.1,0.7,7.1,2.2
								C663.7-269.3,665.2-267,666.4-263.8z M641.6-251.6h24.8c-0.3,3.7-1.3,6.5-2.8,8.4c-2.4,2.9-5.5,4.4-9.3,4.4
								c-3.5,0-6.4-1.2-8.7-3.5C643.2-244.6,641.9-247.7,641.6-251.6z"/>
						</g>
						<g>
							<path class="st2" d="M683.6-278.1v44.5h6.8v-6.3c3.3,4.9,8,7.3,14.1,7.3c2.7,0,5.1-0.5,7.4-1.4c2.3-1,3.9-2.2,5.1-3.8
								s1.9-3.4,2.3-5.6c0.3-1.4,0.4-3.8,0.4-7.3v-27.3h-7.5v27c0,3.1-0.3,5.4-0.9,6.9c-0.6,1.5-1.6,2.7-3.1,3.6
								c-1.5,0.9-3.2,1.4-5.3,1.4c-3.2,0-6-1-8.3-3.1c-2.3-2-3.5-5.9-3.5-11.6v-24.3H683.6z"/>
						</g>
						<g>
							<path id="ArialMT-75" class="st2" d="M760.4-278.1v6.5c-3.5-5-8.2-7.5-14.1-7.5c-2.6,0-5.1,0.5-7.4,1.5c-2.3,1-4,2.3-5.1,3.8
								c-1.1,1.5-1.9,3.4-2.3,5.6c-0.3,1.5-0.5,3.8-0.5,7v27.5h7.5v-24.7c0-3.9,0.2-6.6,0.5-8c0.5-2,1.5-3.5,3-4.7s3.4-1.7,5.7-1.7
								c2.3,0,4.4,0.6,6.4,1.7c2,1.2,3.4,2.7,4.2,4.7c0.8,2,1.2,4.9,1.2,8.7v23.8h7.5v-44.5H760.4z"/>
						</g>
						<g>
							<path class="st2" d="M809.4-263.8l7.8-1c-1.2-4.5-3.5-8.1-6.8-10.6c-3.3-2.5-7.6-3.8-12.7-3.8c-6.5,0-11.7,2-15.5,6
								c-3.8,4-5.7,9.6-5.7,16.9c0,7.5,1.9,13.3,5.8,17.4c3.9,4.1,8.9,6.2,15,6.2c5.9,0,10.8-2,14.6-6.1c3.8-4,5.7-9.7,5.7-17.1
								c0-0.4,0-1.1,0-2h-33.2c0.3-4.9,1.7-8.6,4.1-11.2c2.5-2.6,5.6-3.9,9.3-3.9c2.8,0,5.1,0.7,7.1,2.2
								C806.7-269.3,808.3-267,809.4-263.8z M784.7-251.6h24.8c-0.3,3.7-1.3,6.5-2.8,8.4c-2.4,2.9-5.5,4.4-9.3,4.4
								c-3.5,0-6.4-1.2-8.7-3.5S784.9-247.7,784.7-251.6z"/>
						</g>
					</g>
				</g>
			</g>
			<g id="xtick_5">
				<g id="line2d_5">
					<g>
						<g>
							<path class="st1" d="M197.6,270.1v5.1"/>
						</g>
					</g>
				</g>
				<g id="text_5">
					<g transform="translate(173.393672 375.239219)rotate(-90)scale(0.11 -0.11)">
						<g>
							<path id="ArialMT-53" class="st2" d="M490.4-222.2l7.6,0.7c0.4-3.1,1.2-5.6,2.5-7.6c1.3-2,3.4-3.6,6.2-4.8
								c2.8-1.2,5.9-1.8,9.4-1.8c3.1,0,5.8,0.5,8.2,1.4c2.4,0.9,4.1,2.2,5.3,3.8c1.2,1.6,1.7,3.4,1.7,5.3c0,1.9-0.6,3.6-1.7,5
								s-3,2.6-5.5,3.6c-1.7,0.6-5.3,1.6-10.9,3c-5.6,1.4-9.6,2.6-11.8,3.8c-2.9,1.5-5.1,3.4-6.6,5.7c-1.4,2.3-2.1,4.8-2.1,7.6
								c0,3.1,0.9,6,2.6,8.7c1.8,2.7,4.3,4.7,7.7,6.1c3.4,1.4,7.1,2.1,11.3,2.1c4.5,0,8.6-0.7,12-2.2c3.5-1.5,6.2-3.6,8-6.5
								c1.9-2.8,2.9-6.1,3-9.7l-7.8-0.6c-0.4,3.9-1.8,6.8-4.3,8.8c-2.4,2-6,3-10.7,3c-4.9,0-8.5-0.9-10.7-2.7
								c-2.2-1.8-3.4-4-3.4-6.5c0-2.2,0.8-4,2.4-5.5c1.6-1.4,5.6-2.9,12.2-4.4c6.6-1.5,11.1-2.8,13.6-3.9c3.6-1.7,6.2-3.7,7.9-6.3
								c1.7-2.5,2.6-5.4,2.6-8.7c0-3.3-0.9-6.4-2.8-9.2c-1.9-2.9-4.6-5.1-8.1-6.7c-3.5-1.6-7.4-2.4-11.8-2.4c-5.6,0-10.2,0.8-14,2.4
								c-3.8,1.6-6.7,4.1-8.8,7.3C491.6-230,490.5-226.3,490.4-222.2z"/>
						</g>
						<g>
							<path class="st2" d="M578.4-225.6l7.4-1c-0.8-5.1-2.9-9.1-6.2-12c-3.3-2.9-7.4-4.3-12.3-4.3c-6.1,0-11,2-14.7,6
								c-3.7,4-5.5,9.7-5.5,17.1c0,4.8,0.8,9,2.4,12.6c1.6,3.6,4,6.3,7.3,8.1c3.3,1.8,6.8,2.7,10.6,2.7c4.8,0,8.8-1.2,11.8-3.7
								c3.1-2.4,5-5.9,5.9-10.4l-7.3-1.1c-0.7,3-1.9,5.2-3.7,6.7c-1.8,1.5-3.9,2.3-6.4,2.3c-3.8,0-6.9-1.4-9.3-4.1
								c-2.4-2.7-3.6-7-3.6-12.9c0-6,1.1-10.3,3.4-13c2.3-2.7,5.3-4.1,9-4.1c3,0,5.4,0.9,7.4,2.7
								C576.6-232.2,577.8-229.4,578.4-225.6z"/>
						</g>
						<g>
							<path class="st2" d="M592.3-189.2v8.7h7.5v-8.7H592.3z M592.3-241.9v44.5h7.5v-44.5H592.3z"/>
						</g>
						<g>
							<path class="st2" d="M641.7-227.6l7.8-1c-1.2-4.5-3.5-8.1-6.8-10.6c-3.3-2.5-7.6-3.8-12.7-3.8c-6.5,0-11.7,2-15.5,6
								c-3.8,4-5.7,9.6-5.7,16.9c0,7.5,1.9,13.3,5.8,17.4c3.9,4.1,8.9,6.2,15,6.2c5.9,0,10.8-2,14.6-6.1c3.8-4,5.7-9.7,5.7-17.1
								c0-0.4,0-1.1,0-2h-33.2c0.3-4.9,1.7-8.6,4.1-11.2c2.5-2.6,5.6-3.9,9.3-3.9c2.8,0,5.1,0.7,7.1,2.2
								C639-233.1,640.6-230.8,641.7-227.6z M617-215.4h24.8c-0.3,3.7-1.3,6.5-2.8,8.4c-2.4,2.9-5.5,4.4-9.3,4.4
								c-3.5,0-6.4-1.2-8.7-3.5C618.5-208.5,617.2-211.6,617-215.4z"/>
						</g>
						<g>
							<path class="st2" d="M658.9-241.9v44.5h6.8v-6.3c3.3,4.9,8,7.3,14.1,7.3c2.7,0,5.1-0.5,7.4-1.4c2.3-1,3.9-2.2,5.1-3.8
								s1.9-3.4,2.3-5.6c0.3-1.4,0.4-3.8,0.4-7.3v-27.3h-7.5v27c0,3.1-0.3,5.4-0.9,6.9c-0.6,1.5-1.6,2.7-3.1,3.6
								c-1.5,0.9-3.2,1.4-5.3,1.4c-3.2,0-6-1-8.3-3.1c-2.3-2-3.5-5.9-3.5-11.6v-24.3H658.9z"/>
						</g>
						<g>
							<path class="st2" d="M723.1-235.2l1.1-6.7c-2.1-0.4-4-0.7-5.7-0.7c-2.7,0-4.9,0.4-6.4,1.3c-1.5,0.9-2.6,2-3.2,3.4
								c-0.6,1.4-0.9,4.4-0.9,8.9v25.6h-5.5v5.9h5.5v11l7.5,4.5v-15.5h7.6v-5.9h-7.6v-26c0-2.2,0.1-3.5,0.4-4.2
								c0.3-0.6,0.7-1.1,1.3-1.5c0.6-0.4,1.5-0.5,2.6-0.5C720.6-235.5,721.7-235.4,723.1-235.2z"/>
						</g>
						<g>
							<path class="st2" d="M730.5-189.2v8.7h7.5v-8.7H730.5z M730.5-241.9v44.5h7.5v-44.5H730.5z"/>
						</g>
						<g>
							<path id="ArialMT-73" class="st2" d="M746.5-228.7l7.4,1.2c0.4-3,1.6-5.3,3.5-6.9c1.9-1.6,4.6-2.4,8-2.4c3.5,0,6,0.7,7.7,2.1
								c1.7,1.4,2.5,3.1,2.5,5c0,1.7-0.7,3-2.2,4c-1,0.7-3.6,1.5-7.7,2.5c-5.5,1.4-9.3,2.6-11.5,3.6s-3.8,2.4-4.9,4.2
								c-1.1,1.8-1.6,3.8-1.6,6c0,2,0.5,3.8,1.4,5.5c0.9,1.7,2.1,3.1,3.7,4.2c1.2,0.9,2.8,1.6,4.8,2.2c2,0.6,4.2,0.9,6.5,0.9
								c3.5,0,6.5-0.5,9.2-1.5c2.6-1,4.6-2.4,5.8-4.1c1.3-1.7,2.1-4,2.6-6.9l-7.4-1c-0.3,2.3-1.3,4.1-2.9,5.3
								c-1.6,1.3-3.9,1.9-6.8,1.9c-3.5,0-5.9-0.6-7.4-1.7c-1.5-1.1-2.2-2.5-2.2-4c0-1,0.3-1.9,0.9-2.6c0.6-0.8,1.6-1.5,2.9-2
								c0.8-0.3,3-0.9,6.7-1.9c5.3-1.4,9-2.6,11.1-3.5c2.1-0.9,3.8-2.2,5-4c1.2-1.7,1.8-3.9,1.8-6.4c0-2.5-0.7-4.9-2.2-7.1
								c-1.5-2.2-3.6-3.9-6.4-5.1c-2.8-1.2-5.9-1.8-9.4-1.8c-5.8,0-10.2,1.2-13.2,3.6S747.3-233.4,746.5-228.7z"/>
						</g>
						<g>
							<path class="st2" d="M808.8-235.2l1.1-6.7c-2.1-0.4-4-0.7-5.7-0.7c-2.7,0-4.9,0.4-6.4,1.3c-1.5,0.9-2.6,2-3.2,3.4
								c-0.6,1.4-0.9,4.4-0.9,8.9v25.6h-5.5v5.9h5.5v11l7.5,4.5v-15.5h7.6v-5.9h-7.6v-26c0-2.2,0.1-3.5,0.4-4.2
								c0.3-0.6,0.7-1.1,1.3-1.5c0.6-0.4,1.5-0.5,2.6-0.5C806.3-235.5,807.4-235.4,808.8-235.2z"/>
						</g>
						<g>
							<path class="st2" d="M810.5-241.9"/>
						</g>
						<g>
							<path id="ArialMT-49" class="st2" d="M842.4-241.9v61.4h8.1v-61.4H842.4z"/>
						</g>
						<g>
							<path class="st2" d="M866.2-241.9v61.4h8.1v-61.4H866.2z"/>
						</g>
					</g>
				</g>
			</g>
			<g id="xtick_6">
				<g id="line2d_6">
					<g>
						<g>
							<path class="st1" d="M221.5,270.1v5.1"/>
						</g>
					</g>
				</g>
				<g id="text_6">
					<g transform="translate(201.293672 403.364844)rotate(-90)scale(0.11 -0.11)">
						<g>
							<path class="st2" d="M529.3-205.8v61.4h12.2l14.5-43.4c1.3-4.1,2.3-7.1,2.9-9.1c0.7,2.2,1.8,5.5,3.3,9.8l14.7,42.7h10.9
								v-61.4h-7.8v51.4l-17.8-51.4h-7.3l-17.8,52.2v-52.2H529.3z"/>
						</g>
						<g>
							<path class="st2" d="M600.1-153.1v8.7h7.5v-8.7H600.1z M600.1-205.8v44.5h7.5v-44.5H600.1z"/>
						</g>
						<g>
							<path class="st2" d="M619.1-205.8v44.5h6.8v-6.3c3.3,4.9,8,7.3,14.1,7.3c2.7,0,5.1-0.5,7.4-1.4c2.3-1,3.9-2.2,5.1-3.8
								s1.9-3.4,2.3-5.6c0.3-1.4,0.4-3.8,0.4-7.3v-27.3h-7.5v27c0,3.1-0.3,5.4-0.9,6.9c-0.6,1.5-1.6,2.7-3.1,3.6
								c-1.5,0.9-3.2,1.4-5.3,1.4c-3.2,0-6-1-8.3-3.1c-2.3-2-3.5-5.9-3.5-11.6v-24.3H619.1z"/>
						</g>
						<g>
							<path class="st2" d="M668.9-205.8v8.6h8.6v-8.6H668.9z"/>
						</g>
						<g>
							<path class="st2" d="M684.9-205.8"/>
						</g>
						<g>
							<path class="st2" d="M715.5-205.8v61.4h44.4v-7.2h-36.3v-18.8h33.9v-7.2h-33.9v-20.9h37.7v-7.2H715.5z"/>
						</g>
						<g>
							<path class="st2" d="M766.6-205.8l16.2,23.1l-15,21.4h9.4l6.8-10.4c1.3-2,2.3-3.6,3.1-5c1.2,1.8,2.4,3.5,3.4,4.9l7.5,10.5h9
								l-15.4-20.9l16.5-23.5h-9.2l-9.1,13.8l-2.4,3.7l-11.7-17.5H766.6z"/>
						</g>
						<g>
							<path class="st2" d="M814.5-222.8v61.5h6.9v-5.8c1.6,2.3,3.5,4,5.5,5.1c2,1.1,4.5,1.7,7.4,1.7c3.8,0,7.1-1,10-2.9
								c2.9-2,5.1-4.7,6.6-8.3c1.5-3.6,2.2-7.5,2.2-11.7c0-4.5-0.8-8.6-2.5-12.3c-1.6-3.6-4-6.4-7.1-8.4c-3.1-1.9-6.4-2.9-9.8-2.9
								c-2.5,0-4.8,0.5-6.8,1.6c-2,1.1-3.6,2.4-4.9,4v-21.6H814.5z M821.3-183.8c0-5.7,1.2-10,3.5-12.7c2.3-2.7,5.1-4.1,8.4-4.1
								c3.3,0,6.2,1.4,8.6,4.2c2.4,2.8,3.6,7.2,3.6,13.2c0,5.7-1.2,9.9-3.5,12.7c-2.3,2.8-5.1,4.2-8.3,4.2c-3.2,0-6.1-1.5-8.5-4.5
								C822.5-173.7,821.3-178.1,821.3-183.8z"/>
						</g>
						<g>
							<path class="st2" d="M892.6-191.4l7.8-1c-1.2-4.5-3.5-8.1-6.8-10.6c-3.3-2.5-7.6-3.8-12.7-3.8c-6.5,0-11.7,2-15.5,6
								c-3.8,4-5.7,9.6-5.7,16.9c0,7.5,1.9,13.3,5.8,17.4c3.9,4.1,8.9,6.2,15,6.2c5.9,0,10.8-2,14.6-6.1c3.8-4,5.7-9.7,5.7-17.1
								c0-0.4,0-1.1,0-2h-33.2c0.3-4.9,1.7-8.6,4.1-11.2c2.5-2.6,5.6-3.9,9.3-3.9c2.8,0,5.1,0.7,7.1,2.2
								C889.9-196.9,891.4-194.6,892.6-191.4z M867.8-179.3h24.8c-0.3,3.7-1.3,6.5-2.8,8.4c-2.4,2.9-5.5,4.4-9.3,4.4
								c-3.5,0-6.4-1.2-8.7-3.5C869.4-172.3,868.1-175.4,867.8-179.3z"/>
						</g>
						<g>
							<path class="st2" d="M909.8-205.8v44.5h6.8v-6.7c1.7,3.2,3.3,5.2,4.8,6.2c1.5,1,3.1,1.5,4.8,1.5c2.5,0,5.1-0.8,7.7-2.4
								l-2.6-7c-1.8,1.1-3.7,1.6-5.5,1.6c-1.7,0-3.1-0.5-4.4-1.5c-1.3-1-2.2-2.4-2.8-4.1c-0.8-2.7-1.3-5.6-1.3-8.8v-23.3H909.8z"/>
						</g>
						<g>
							<path class="st2" d="M938.4-153.1v8.7h7.5v-8.7H938.4z M938.4-205.8v44.5h7.5v-44.5H938.4z"/>
						</g>
						<g>
							<path class="st2" d="M987.9-191.4l7.8-1c-1.2-4.5-3.5-8.1-6.8-10.6c-3.3-2.5-7.6-3.8-12.7-3.8c-6.5,0-11.7,2-15.5,6
								c-3.8,4-5.7,9.6-5.7,16.9c0,7.5,1.9,13.3,5.8,17.4c3.9,4.1,8.9,6.2,15,6.2c5.9,0,10.8-2,14.6-6.1c3.8-4,5.7-9.7,5.7-17.1
								c0-0.4,0-1.1,0-2h-33.2c0.3-4.9,1.7-8.6,4.1-11.2c2.5-2.6,5.6-3.9,9.3-3.9c2.8,0,5.1,0.7,7.1,2.2
								C985.2-196.9,986.7-194.6,987.9-191.4z M963.1-179.3H988c-0.3,3.7-1.3,6.5-2.8,8.4c-2.4,2.9-5.5,4.4-9.3,4.4
								c-3.5,0-6.4-1.2-8.7-3.5C964.7-172.3,963.4-175.4,963.1-179.3z"/>
						</g>
						<g>
							<path class="st2" d="M1005.1-205.8v44.5h6.8v-6.3c3.3,4.9,8,7.3,14.1,7.3c2.7,0,5.1-0.5,7.4-1.4s3.9-2.2,5.1-3.8
								c1.1-1.6,1.9-3.4,2.3-5.6c0.3-1.4,0.4-3.8,0.4-7.3v-27.3h-7.5v27c0,3.1-0.3,5.4-0.9,6.9c-0.6,1.5-1.6,2.7-3.1,3.6
								c-1.5,0.9-3.2,1.4-5.3,1.4c-3.2,0-6-1-8.3-3.1c-2.3-2-3.5-5.9-3.5-11.6v-24.3H1005.1z"/>
						</g>
						<g>
							<path class="st2" d="M1081.8-189.5l7.4-1c-0.8-5.1-2.9-9.1-6.2-12c-3.3-2.9-7.4-4.3-12.3-4.3c-6.1,0-11,2-14.7,6
								c-3.7,4-5.5,9.7-5.5,17.1c0,4.8,0.8,9,2.4,12.6c1.6,3.6,4,6.3,7.3,8.1c3.3,1.8,6.8,2.7,10.6,2.7c4.8,0,8.8-1.2,11.8-3.7
								c3.1-2.4,5-5.9,5.9-10.4l-7.3-1.1c-0.7,3-1.9,5.2-3.7,6.7c-1.8,1.5-3.9,2.3-6.4,2.3c-3.8,0-6.9-1.4-9.3-4.1
								c-2.4-2.7-3.6-7-3.6-12.9c0-6,1.1-10.3,3.4-13c2.3-2.7,5.3-4.1,9-4.1c3,0,5.4,0.9,7.4,2.7
								C1080-196,1081.3-193.2,1081.8-189.5z"/>
						</g>
						<g>
							<path class="st2" d="M1126.1-191.4l7.8-1c-1.2-4.5-3.5-8.1-6.8-10.6c-3.3-2.5-7.6-3.8-12.7-3.8c-6.5,0-11.7,2-15.5,6
								c-3.8,4-5.7,9.6-5.7,16.9c0,7.5,1.9,13.3,5.8,17.4c3.9,4.1,8.9,6.2,15,6.2c5.9,0,10.8-2,14.6-6.1c3.8-4,5.7-9.7,5.7-17.1
								c0-0.4,0-1.1,0-2H1101c0.3-4.9,1.7-8.6,4.1-11.2c2.5-2.6,5.6-3.9,9.3-3.9c2.8,0,5.1,0.7,7.1,2.2
								C1123.4-196.9,1125-194.6,1126.1-191.4z M1101.4-179.3h24.8c-0.3,3.7-1.3,6.5-2.8,8.4c-2.4,2.9-5.5,4.4-9.3,4.4
								c-3.5,0-6.4-1.2-8.7-3.5C1102.9-172.3,1101.6-175.4,1101.4-179.3z"/>
						</g>
					</g>
				</g>
			</g>
			<g id="xtick_7">
				<g id="line2d_7">
					<g>
						<g>
							<path class="st1" d="M245.4,270.1v5.1"/>
						</g>
					</g>
				</g>
				<g id="text_7">
					<g transform="translate(229.193672 348.968125)rotate(-90)scale(0.11 -0.11)">
						<g>
							<path id="ArialMT-4c" class="st2" d="M458.7-169.6v61.4h8.1v-54.1h30.2v-7.2H458.7z"/>
						</g>
						<g>
							<path class="st2" d="M536.2-155.3l7.8-1c-1.2-4.5-3.5-8.1-6.8-10.6c-3.3-2.5-7.6-3.8-12.7-3.8c-6.5,0-11.7,2-15.5,6
								c-3.8,4-5.7,9.6-5.7,16.9c0,7.5,1.9,13.3,5.8,17.4c3.9,4.1,8.9,6.2,15,6.2c5.9,0,10.8-2,14.6-6.1c3.8-4,5.7-9.7,5.7-17.1
								c0-0.4,0-1.1,0-2h-33.2c0.3-4.9,1.7-8.6,4.1-11.2c2.5-2.6,5.6-3.9,9.3-3.9c2.8,0,5.1,0.7,7.1,2.2
								C533.5-160.8,535.1-158.4,536.2-155.3z M511.5-143.1h24.8c-0.3,3.7-1.3,6.5-2.8,8.4c-2.4,2.9-5.5,4.4-9.3,4.4
								c-3.5,0-6.4-1.2-8.7-3.5C513-136.1,511.7-139.2,511.5-143.1z"/>
						</g>
						<g>
							<path class="st2" d="M582.5-164.1c-2.8-2.4-5.5-4-8.1-5c-2.6-1-5.3-1.5-8.3-1.5c-4.9,0-8.6,1.2-11.3,3.6
								c-2.6,2.4-3.9,5.4-3.9,9.1c0,2.2,0.5,4.2,1.5,6c1,1.8,2.3,3.3,3.9,4.3c1.6,1.1,3.4,1.9,5.4,2.5c1.5,0.4,3.7,0.8,6.7,1.1
								c6.1,0.7,10.6,1.6,13.4,2.6c0,1,0,1.7,0,2c0,3.1-0.7,5.2-2.1,6.5c-1.9,1.7-4.8,2.5-8.6,2.5c-3.5,0-6.2-0.6-7.9-1.9
								s-2.9-3.4-3.8-6.6l-7.4,1c0.7,3.2,1.8,5.7,3.3,7.6s3.8,3.4,6.7,4.5c2.9,1.1,6.3,1.6,10.1,1.6c3.8,0,6.9-0.4,9.2-1.3
								c2.4-0.9,4.1-2,5.2-3.4c1.1-1.3,1.9-3.1,2.3-5.1c0.3-1.3,0.4-3.6,0.4-6.9v-10c0-7,0.2-11.4,0.5-13.3c0.3-1.8,1-3.6,1.9-5.3
								H584C583.2-168,582.7-166.2,582.5-164.1z M581.8-147.3c-2.7-1.1-6.8-2.1-12.3-2.9c-3.1-0.4-5.3-1-6.6-1.5
								c-1.3-0.6-2.3-1.4-3-2.4c-0.7-1.1-1-2.3-1-3.6c0-2,0.8-3.7,2.3-5c1.5-1.3,3.8-2,6.7-2c2.9,0,5.5,0.6,7.7,1.9
								c2.3,1.3,3.9,3,5,5.2c0.8,1.7,1.2,4.2,1.2,7.5V-147.3z"/>
						</g>
						<g>
							<path id="ArialMT-64" class="st2" d="M630-169.6v5.6c-2.8-4.4-7-6.6-12.4-6.6c-3.5,0-6.8,1-9.8,2.9c-3,2-5.3,4.7-6.9,8.2
								c-1.6,3.5-2.4,7.5-2.4,12.1c0,4.4,0.7,8.5,2.2,12.1c1.5,3.6,3.7,6.4,6.7,8.3c3,1.9,6.3,2.9,9.9,2.9c2.7,0,5.1-0.6,7.2-1.7
								c2.1-1.1,3.8-2.6,5.1-4.4v22h7.5v-61.4H630z M606.2-147.4c0-5.7,1.2-9.9,3.6-12.8c2.4-2.8,5.2-4.2,8.5-4.2
								c3.3,0,6.1,1.3,8.4,4c2.3,2.7,3.5,6.8,3.5,12.3c0,6.1-1.2,10.6-3.5,13.4c-2.3,2.8-5.2,4.3-8.7,4.3c-3.3,0-6.1-1.4-8.4-4.1
								C607.3-137.2,606.2-141.5,606.2-147.4z"/>
						</g>
					</g>
				</g>
			</g>
			<g id="xtick_8">
				<g id="line2d_8">
					<g>
						<g>
							<path class="st1" d="M269.3,270.1v5.1"/>
						</g>
					</g>
				</g>
				<g id="text_8">
					<g transform="translate(257.093672 345.898438)rotate(-90)scale(0.11 -0.11)">
						<g>
							<path class="st2" d="M452.3-113.7l7.6,0.7c0.4-3.1,1.2-5.6,2.5-7.6c1.3-2,3.4-3.6,6.2-4.8c2.8-1.2,5.9-1.8,9.4-1.8
								c3.1,0,5.8,0.5,8.2,1.4c2.4,0.9,4.1,2.2,5.3,3.8c1.2,1.6,1.7,3.4,1.7,5.3c0,1.9-0.6,3.6-1.7,5s-3,2.6-5.5,3.6
								c-1.7,0.6-5.3,1.6-10.9,3c-5.6,1.4-9.6,2.6-11.8,3.8c-2.9,1.5-5.1,3.4-6.6,5.7c-1.4,2.3-2.1,4.8-2.1,7.6c0,3.1,0.9,6,2.6,8.7
								c1.8,2.7,4.3,4.7,7.7,6.1c3.4,1.4,7.1,2.1,11.3,2.1c4.5,0,8.6-0.7,12-2.2c3.5-1.5,6.2-3.6,8-6.5c1.9-2.8,2.9-6.1,3-9.7
								l-7.8-0.6c-0.4,3.9-1.8,6.8-4.3,8.8c-2.4,2-6,3-10.7,3c-4.9,0-8.5-0.9-10.7-2.7c-2.2-1.8-3.4-4-3.4-6.5c0-2.2,0.8-4,2.4-5.5
								c1.6-1.4,5.6-2.9,12.2-4.4c6.6-1.5,11.1-2.8,13.6-3.9c3.6-1.7,6.2-3.7,7.9-6.3c1.7-2.5,2.6-5.4,2.6-8.7
								c0-3.3-0.9-6.4-2.8-9.2c-1.9-2.9-4.6-5.1-8.1-6.7c-3.5-1.6-7.4-2.4-11.8-2.4c-5.6,0-10.2,0.8-14,2.4
								c-3.8,1.6-6.7,4.1-8.8,7.3C453.5-121.5,452.4-117.8,452.3-113.7z"/>
						</g>
						<g>
							<path class="st2" d="M511.3-80.7v8.7h7.5v-8.7H511.3z M511.3-133.4V-89h7.5v-44.5H511.3z"/>
						</g>
						<g>
							<path id="ArialMT-7a" class="st2" d="M526.4-133.4v6.1l28.3,32.5c-3.2-0.2-6.1-0.2-8.5-0.2H528v6.1h36.3v-5l-24.1-28.2
								l-4.6-5.2c3.4,0.3,6.5,0.4,9.5,0.4h20.6v-6.5H526.4z"/>
						</g>
						<g>
							<path class="st2" d="M603.7-119.1l7.8-1c-1.2-4.5-3.5-8.1-6.8-10.6c-3.3-2.5-7.6-3.8-12.7-3.8c-6.5,0-11.7,2-15.5,6
								c-3.8,4-5.7,9.6-5.7,16.9c0,7.5,1.9,13.3,5.8,17.4c3.9,4.1,8.9,6.2,15,6.2c5.9,0,10.8-2,14.6-6.1c3.8-4,5.7-9.7,5.7-17.1
								c0-0.4,0-1.1,0-2h-33.2c0.3-4.9,1.7-8.6,4.1-11.2c2.5-2.6,5.6-3.9,9.3-3.9c2.8,0,5.1,0.7,7.1,2.2
								C601-124.6,602.5-122.3,603.7-119.1z M578.9-106.9h24.8c-0.3,3.7-1.3,6.5-2.8,8.4c-2.4,2.9-5.5,4.4-9.3,4.4
								c-3.5,0-6.4-1.2-8.7-3.5C580.5-99.9,579.2-103,578.9-106.9z"/>
						</g>
					</g>
				</g>
			</g>
			<g id="xtick_9">
				<g id="line2d_9">
					<g>
						<g>
							<path class="st1" d="M293.3,270.1v5.1"/>
						</g>
					</g>
				</g>
				<g id="text_9">
					<g transform="translate(284.993672 372.183281)rotate(-90)scale(0.11 -0.11)">
						<g>
							<path class="st2" d="M486.4-77.5l7.6,0.7c0.4-3.1,1.2-5.6,2.5-7.6c1.3-2,3.4-3.6,6.2-4.8c2.8-1.2,5.9-1.8,9.4-1.8
								c3.1,0,5.8,0.5,8.2,1.4c2.4,0.9,4.1,2.2,5.3,3.8c1.2,1.6,1.7,3.4,1.7,5.3c0,1.9-0.6,3.6-1.7,5s-3,2.6-5.5,3.6
								c-1.7,0.6-5.3,1.6-10.9,3c-5.6,1.4-9.6,2.6-11.8,3.8c-2.9,1.5-5.1,3.4-6.6,5.7c-1.4,2.3-2.1,4.8-2.1,7.6c0,3.1,0.9,6,2.6,8.7
								c1.8,2.7,4.3,4.7,7.7,6.1c3.4,1.4,7.1,2.1,11.3,2.1c4.5,0,8.6-0.7,12-2.2c3.5-1.5,6.2-3.6,8-6.5c1.9-2.8,2.9-6.1,3-9.7
								l-7.8-0.6c-0.4,3.9-1.8,6.8-4.3,8.8c-2.4,2-6,3-10.7,3c-4.9,0-8.5-0.9-10.7-2.7c-2.2-1.8-3.4-4-3.4-6.5c0-2.2,0.8-4,2.4-5.5
								c1.6-1.4,5.6-2.9,12.2-4.4s11.1-2.8,13.6-3.9c3.6-1.7,6.2-3.7,7.9-6.3c1.7-2.5,2.6-5.4,2.6-8.7c0-3.3-0.9-6.4-2.8-9.2
								c-1.9-2.9-4.6-5.1-8.1-6.7c-3.5-1.6-7.4-2.4-11.8-2.4c-5.6,0-10.2,0.8-14,2.4c-3.8,1.6-6.7,4.1-8.8,7.3
								C487.6-85.3,486.5-81.6,486.4-77.5z"/>
						</g>
						<g>
							<path class="st2" d="M574.4-81l7.4-1c-0.8-5.1-2.9-9.1-6.2-12c-3.3-2.9-7.4-4.3-12.3-4.3c-6.1,0-11,2-14.7,6
								c-3.7,4-5.5,9.7-5.5,17.1c0,4.8,0.8,9,2.4,12.6c1.6,3.6,4,6.3,7.3,8.1c3.3,1.8,6.8,2.7,10.6,2.7c4.8,0,8.8-1.2,11.8-3.7
								c3.1-2.4,5-5.9,5.9-10.4l-7.3-1.1c-0.7,3-1.9,5.2-3.7,6.7c-1.8,1.5-3.9,2.3-6.4,2.3c-3.8,0-6.9-1.4-9.3-4.1
								c-2.4-2.7-3.6-7-3.6-12.9c0-6,1.1-10.3,3.4-13c2.3-2.7,5.3-4.1,9-4.1c3,0,5.4,0.9,7.4,2.7S573.9-84.7,574.4-81z"/>
						</g>
						<g>
							<path class="st2" d="M588.3-44.5v8.7h7.5v-8.7H588.3z M588.3-97.2v44.5h7.5v-44.5H588.3z"/>
						</g>
						<g>
							<path class="st2" d="M637.7-82.9l7.8-1c-1.2-4.5-3.5-8.1-6.8-10.6c-3.3-2.5-7.6-3.8-12.7-3.8c-6.5,0-11.7,2-15.5,6
								c-3.8,4-5.7,9.6-5.7,16.9c0,7.5,1.9,13.3,5.8,17.4c3.9,4.1,8.9,6.2,15,6.2c5.9,0,10.8-2,14.6-6.1c3.8-4,5.7-9.7,5.7-17.1
								c0-0.4,0-1.1,0-2h-33.2c0.3-4.9,1.7-8.6,4.1-11.2c2.5-2.6,5.6-3.9,9.3-3.9c2.8,0,5.1,0.7,7.1,2.2
								C635-88.4,636.6-86.1,637.7-82.9z M613-70.7h24.8c-0.3,3.7-1.3,6.5-2.8,8.4c-2.4,2.9-5.5,4.4-9.3,4.4c-3.5,0-6.4-1.2-8.7-3.5
								C614.5-63.8,613.2-66.9,613-70.7z"/>
						</g>
						<g>
							<path class="st2" d="M655-97.2v44.5h6.8v-6.3c3.3,4.9,8,7.3,14.1,7.3c2.7,0,5.1-0.5,7.4-1.4c2.3-1,3.9-2.2,5.1-3.8
								c1.1-1.6,1.9-3.4,2.3-5.6c0.3-1.4,0.4-3.8,0.4-7.3v-27.3h-7.5v27c0,3.1-0.3,5.4-0.9,6.9c-0.6,1.5-1.6,2.7-3.1,3.6
								c-1.5,0.9-3.2,1.4-5.3,1.4c-3.2,0-6-1-8.3-3.1s-3.5-5.9-3.5-11.6v-24.3H655z"/>
						</g>
						<g>
							<path class="st2" d="M719.1-90.5l1.1-6.7c-2.1-0.4-4-0.7-5.7-0.7c-2.7,0-4.9,0.4-6.4,1.3c-1.5,0.9-2.6,2-3.2,3.4
								c-0.6,1.4-0.9,4.4-0.9,8.9v25.6h-5.5v5.9h5.5v11l7.5,4.5v-15.5h7.6v-5.9h-7.6v-26c0-2.2,0.1-3.5,0.4-4.2
								c0.3-0.6,0.7-1.1,1.3-1.5c0.6-0.4,1.5-0.5,2.6-0.5C716.6-90.8,717.7-90.7,719.1-90.5z"/>
						</g>
						<g>
							<path class="st2" d="M726.5-44.5v8.7h7.5v-8.7H726.5z M726.5-97.2v44.5h7.5v-44.5H726.5z"/>
						</g>
						<g>
							<path class="st2" d="M742.5-84l7.4,1.2c0.4-3,1.6-5.3,3.5-6.9c1.9-1.6,4.6-2.4,8-2.4c3.5,0,6,0.7,7.7,2.1
								c1.7,1.4,2.5,3.1,2.5,5c0,1.7-0.7,3-2.2,4c-1,0.7-3.6,1.5-7.7,2.5c-5.5,1.4-9.3,2.6-11.5,3.6s-3.8,2.4-4.9,4.2
								c-1.1,1.8-1.6,3.8-1.6,6c0,2,0.5,3.8,1.4,5.5c0.9,1.7,2.1,3.1,3.7,4.2c1.2,0.9,2.8,1.6,4.8,2.2c2,0.6,4.2,0.9,6.5,0.9
								c3.5,0,6.5-0.5,9.2-1.5c2.6-1,4.6-2.4,5.8-4.1c1.3-1.7,2.1-4,2.6-6.9l-7.4-1c-0.3,2.3-1.3,4.1-2.9,5.3
								c-1.6,1.3-3.9,1.9-6.8,1.9c-3.5,0-5.9-0.6-7.4-1.7c-1.5-1.1-2.2-2.5-2.2-4c0-1,0.3-1.9,0.9-2.6c0.6-0.8,1.6-1.5,2.9-2
								c0.8-0.3,3-0.9,6.7-1.9c5.3-1.4,9-2.6,11.1-3.5c2.1-0.9,3.8-2.2,5-4c1.2-1.7,1.8-3.9,1.8-6.4c0-2.5-0.7-4.9-2.2-7.1
								c-1.5-2.2-3.6-3.9-6.4-5.1c-2.8-1.2-5.9-1.8-9.4-1.8c-5.8,0-10.2,1.2-13.2,3.6C745.3-92.2,743.4-88.7,742.5-84z"/>
						</g>
						<g>
							<path class="st2" d="M804.9-90.5l1.1-6.7c-2.1-0.4-4-0.7-5.7-0.7c-2.7,0-4.9,0.4-6.4,1.3c-1.5,0.9-2.6,2-3.2,3.4
								c-0.6,1.4-0.9,4.4-0.9,8.9v25.6h-5.5v5.9h5.5v11l7.5,4.5v-15.5h7.6v-5.9h-7.6v-26c0-2.2,0.1-3.5,0.4-4.2
								c0.3-0.6,0.7-1.1,1.3-1.5c0.6-0.4,1.5-0.5,2.6-0.5C802.4-90.8,803.5-90.7,804.9-90.5z"/>
						</g>
						<g>
							<path class="st2" d="M806.6-97.2"/>
						</g>
						<g>
							<path class="st2" d="M838.4-97.2v61.4h8.1v-61.4H838.4z"/>
						</g>
					</g>
				</g>
			</g>
			<g id="xtick_10">
				<g id="line2d_10">
					<g>
						<g>
							<path class="st1" d="M317.2,270.1v5.1"/>
						</g>
					</g>
				</g>
				<g id="text_10">
					<g transform="translate(312.893672 366.071406)rotate(-90)scale(0.11 -0.11)">
						<g>
							<path class="st2" d="M478.5-41.4l7.6,0.7c0.4-3.1,1.2-5.6,2.5-7.6c1.3-2,3.4-3.6,6.2-4.8c2.8-1.2,5.9-1.8,9.4-1.8
								c3.1,0,5.8,0.5,8.2,1.4c2.4,0.9,4.1,2.2,5.3,3.8c1.2,1.6,1.7,3.4,1.7,5.3c0,1.9-0.6,3.6-1.7,5s-3,2.6-5.5,3.6
								c-1.7,0.6-5.3,1.6-10.9,3c-5.6,1.4-9.6,2.6-11.8,3.8c-2.9,1.5-5.1,3.4-6.6,5.7c-1.4,2.3-2.1,4.8-2.1,7.6c0,3.1,0.9,6,2.6,8.7
								c1.8,2.7,4.3,4.7,7.7,6.1c3.4,1.4,7.1,2.1,11.3,2.1c4.5,0,8.6-0.7,12-2.2c3.5-1.5,6.2-3.6,8-6.5c1.9-2.8,2.9-6.1,3-9.7
								l-7.8-0.6c-0.4,3.9-1.8,6.8-4.3,8.8c-2.4,2-6,3-10.7,3c-4.9,0-8.5-0.9-10.7-2.7c-2.2-1.8-3.4-4-3.4-6.5c0-2.2,0.8-4,2.4-5.5
								c1.6-1.4,5.6-2.9,12.2-4.4c6.6-1.5,11.1-2.8,13.6-3.9c3.6-1.7,6.2-3.7,7.9-6.3c1.7-2.5,2.6-5.4,2.6-8.7
								c0-3.3-0.9-6.4-2.8-9.2c-1.9-2.9-4.6-5.1-8.1-6.7c-3.5-1.6-7.4-2.4-11.8-2.4c-5.6,0-10.2,0.8-14,2.4
								c-3.8,1.6-6.7,4.1-8.8,7.3C479.7-49.1,478.6-45.5,478.5-41.4z"/>
						</g>
						<g>
							<path class="st2" d="M566.5-44.8l7.4-1c-0.8-5.1-2.9-9.1-6.2-12c-3.3-2.9-7.4-4.3-12.3-4.3c-6.1,0-11,2-14.7,6
								c-3.7,4-5.5,9.7-5.5,17.1c0,4.8,0.8,9,2.4,12.6c1.6,3.6,4,6.3,7.3,8.1c3.3,1.8,6.8,2.7,10.6,2.7c4.8,0,8.8-1.2,11.8-3.7
								c3.1-2.4,5-5.9,5.9-10.4l-7.3-1.1c-0.7,3-1.9,5.2-3.7,6.7c-1.8,1.5-3.9,2.3-6.4,2.3c-3.8,0-6.9-1.4-9.3-4.1
								c-2.4-2.7-3.6-7-3.6-12.9c0-6,1.1-10.3,3.4-13c2.3-2.7,5.3-4.1,9-4.1c3,0,5.4,0.9,7.4,2.7C564.7-51.3,565.9-48.6,566.5-44.8z
								"/>
						</g>
						<g>
							<path class="st2" d="M580.4-8.4v8.7h7.5v-8.7H580.4z M580.4-61.1v44.5h7.5v-44.5H580.4z"/>
						</g>
						<g>
							<path class="st2" d="M629.8-46.8l7.8-1c-1.2-4.5-3.5-8.1-6.8-10.6c-3.3-2.5-7.6-3.8-12.7-3.8c-6.5,0-11.7,2-15.5,6
								c-3.8,4-5.7,9.6-5.7,16.9c0,7.5,1.9,13.3,5.8,17.4c3.9,4.1,8.9,6.2,15,6.2c5.9,0,10.8-2,14.6-6.1s5.7-9.7,5.7-17.1
								c0-0.4,0-1.1,0-2h-33.2c0.3-4.9,1.7-8.6,4.1-11.2c2.5-2.6,5.6-3.9,9.3-3.9c2.8,0,5.1,0.7,7.1,2.2
								C627.1-52.2,628.7-49.9,629.8-46.8z M605.1-34.6h24.8c-0.3,3.7-1.3,6.5-2.8,8.4c-2.4,2.9-5.5,4.4-9.3,4.4
								c-3.5,0-6.4-1.2-8.7-3.5C606.6-27.6,605.3-30.7,605.1-34.6z"/>
						</g>
						<g>
							<path class="st2" d="M647.1-61.1v44.5h6.8v-6.3c3.3,4.9,8,7.3,14.1,7.3c2.7,0,5.1-0.5,7.4-1.4c2.3-1,3.9-2.2,5.1-3.8
								c1.1-1.6,1.9-3.4,2.3-5.6c0.3-1.4,0.4-3.8,0.4-7.3v-27.3h-7.5v27c0,3.1-0.3,5.4-0.9,6.9c-0.6,1.5-1.6,2.7-3.1,3.6
								c-1.5,0.9-3.2,1.4-5.3,1.4c-3.2,0-6-1-8.3-3.1c-2.3-2-3.5-5.9-3.5-11.6v-24.3H647.1z"/>
						</g>
						<g>
							<path class="st2" d="M711.2-54.3l1.1-6.7c-2.1-0.4-4-0.7-5.7-0.7c-2.7,0-4.9,0.4-6.4,1.3c-1.5,0.9-2.6,2-3.2,3.4
								c-0.6,1.4-0.9,4.4-0.9,8.9v25.6h-5.5v5.9h5.5v11l7.5,4.5v-15.5h7.6v-5.9h-7.6v-26c0-2.2,0.1-3.5,0.4-4.2
								c0.3-0.6,0.7-1.1,1.3-1.5c0.6-0.4,1.5-0.5,2.6-0.5C708.7-54.6,709.8-54.5,711.2-54.3z"/>
						</g>
						<g>
							<path class="st2" d="M718.6-8.4v8.7h7.5v-8.7H718.6z M718.6-61.1v44.5h7.5v-44.5H718.6z"/>
						</g>
						<g>
							<path class="st2" d="M734.6-47.8l7.4,1.2c0.4-3,1.6-5.3,3.5-6.9s4.6-2.4,8-2.4c3.5,0,6,0.7,7.7,2.1c1.7,1.4,2.5,3.1,2.5,5
								c0,1.7-0.7,3-2.2,4c-1,0.7-3.6,1.5-7.7,2.5c-5.5,1.4-9.3,2.6-11.5,3.6s-3.8,2.4-4.9,4.2c-1.1,1.8-1.6,3.8-1.6,6
								c0,2,0.5,3.8,1.4,5.5c0.9,1.7,2.1,3.1,3.7,4.2c1.2,0.9,2.8,1.6,4.8,2.2c2,0.6,4.2,0.9,6.5,0.9c3.5,0,6.5-0.5,9.2-1.5
								c2.6-1,4.6-2.4,5.8-4.1c1.3-1.7,2.1-4,2.6-6.9l-7.4-1c-0.3,2.3-1.3,4.1-2.9,5.3c-1.6,1.3-3.9,1.9-6.8,1.9
								c-3.5,0-5.9-0.6-7.4-1.7c-1.5-1.1-2.2-2.5-2.2-4c0-1,0.3-1.9,0.9-2.6c0.6-0.8,1.6-1.5,2.9-2c0.8-0.3,3-0.9,6.7-1.9
								c5.3-1.4,9-2.6,11.1-3.5c2.1-0.9,3.8-2.2,5-4c1.2-1.7,1.8-3.9,1.8-6.4c0-2.5-0.7-4.9-2.2-7.1c-1.5-2.2-3.6-3.9-6.3-5.1
								c-2.8-1.2-5.9-1.8-9.4-1.8c-5.8,0-10.2,1.2-13.2,3.6S735.4-52.5,734.6-47.8z"/>
						</g>
						<g>
							<path class="st2" d="M796.9-54.3L798-61c-2.1-0.4-4-0.7-5.7-0.7c-2.7,0-4.9,0.4-6.4,1.3c-1.5,0.9-2.6,2-3.2,3.4
								c-0.6,1.4-0.9,4.4-0.9,8.9v25.6h-5.5v5.9h5.5v11l7.5,4.5v-15.5h7.6v-5.9h-7.6v-26c0-2.2,0.1-3.5,0.4-4.2
								c0.3-0.6,0.7-1.1,1.3-1.5c0.6-0.4,1.5-0.5,2.6-0.5C794.5-54.6,795.6-54.5,796.9-54.3z"/>
						</g>
					</g>
				</g>
			</g>
		</g>
		<g id="matplotlib.axis_2">
			<g id="ytick_1">
				<g id="line2d_11">
					<g>
						<g>
							<path id="m78df5e3e9f" class="st1" d="M89.9,270.1h-5.1"/>
						</g>
					</g>
				</g>
				<g id="text_11">
					<g transform="translate(14.092969 318.936797)scale(0.11 -0.11)">
						<g>
							<path id="ArialMT-30" class="st2" d="M452,443.8c0,7.3,0.7,13.1,2.2,17.5c1.5,4.4,3.7,7.8,6.6,10.2c2.9,2.4,6.7,3.6,11.1,3.6
								c3.3,0,6.2-0.7,8.7-2c2.5-1.3,4.5-3.2,6.1-5.7c1.6-2.5,2.9-5.5,3.8-9.1c0.9-3.6,1.4-8.4,1.4-14.5c0-7.2-0.7-13-2.2-17.4
								c-1.5-4.4-3.7-7.8-6.6-10.3c-2.9-2.4-6.7-3.6-11.2-3.6c-5.9,0-10.6,2.1-13.9,6.4C454.1,423.9,452,432.2,452,443.8z
								 M459.8,443.8c0-10.1,1.2-16.8,3.5-20.1c2.4-3.3,5.3-5,8.7-5c3.5,0,6.4,1.7,8.7,5c2.4,3.3,3.5,10,3.5,20.1
								c0,10.1-1.2,16.8-3.5,20.1c-2.4,3.3-5.3,5-8.8,5c-3.5,0-6.2-1.5-8.3-4.4C461.1,460.8,459.8,453.9,459.8,443.8z"/>
						</g>
						<g>
							<path class="st2" d="M503.9,413.5v8.6h8.6v-8.6H503.9z"/>
						</g>
						<g>
							<path class="st2" d="M523.5,443.8c0,7.3,0.7,13.1,2.2,17.5c1.5,4.4,3.7,7.8,6.6,10.2c2.9,2.4,6.7,3.6,11.1,3.6
								c3.3,0,6.2-0.7,8.7-2c2.5-1.3,4.5-3.2,6.1-5.7c1.6-2.5,2.9-5.5,3.8-9.1c0.9-3.6,1.4-8.4,1.4-14.5c0-7.2-0.7-13-2.2-17.4
								c-1.5-4.4-3.7-7.8-6.6-10.3c-2.9-2.4-6.7-3.6-11.2-3.6c-5.9,0-10.6,2.1-13.9,6.4C525.6,423.9,523.5,432.2,523.5,443.8z
								 M531.3,443.8c0-10.1,1.2-16.8,3.5-20.1c2.4-3.3,5.3-5,8.7-5c3.5,0,6.4,1.7,8.7,5s3.5,10,3.5,20.1c0,10.1-1.2,16.8-3.5,20.1
								c-2.4,3.3-5.3,5-8.8,5c-3.5,0-6.2-1.5-8.3-4.4C532.6,460.8,531.3,453.9,531.3,443.8z"/>
						</g>
						<g>
							<path class="st2" d="M571.2,443.8c0,7.3,0.7,13.1,2.2,17.5c1.5,4.4,3.7,7.8,6.6,10.2c2.9,2.4,6.7,3.6,11.1,3.6
								c3.3,0,6.2-0.7,8.7-2c2.5-1.3,4.5-3.2,6.1-5.7c1.6-2.5,2.9-5.5,3.8-9.1c0.9-3.6,1.4-8.4,1.4-14.5c0-7.2-0.7-13-2.2-17.4
								c-1.5-4.4-3.7-7.8-6.6-10.3c-2.9-2.4-6.7-3.6-11.2-3.6c-5.9,0-10.6,2.1-13.9,6.4C573.2,423.9,571.2,432.2,571.2,443.8z
								 M579,443.8c0-10.1,1.2-16.8,3.5-20.1c2.4-3.3,5.3-5,8.7-5c3.5,0,6.4,1.7,8.7,5c2.4,3.3,3.5,10,3.5,20.1
								c0,10.1-1.2,16.8-3.5,20.1c-2.4,3.3-5.3,5-8.8,5c-3.5,0-6.2-1.5-8.3-4.4C580.3,460.8,579,453.9,579,443.8z"/>
						</g>
					</g>
				</g>
			</g>
			<g id="ytick_2">
				<g id="line2d_12">
					<g>
						<g>
							<path class="st1" d="M89.9,243.8h-5.1"/>
						</g>
					</g>
				</g>
				<g id="text_12">
					<g transform="translate(14.092969 288.238927)scale(0.11 -0.11)">
						<g>
							<path class="st2" d="M452,404c0,7.3,0.7,13.1,2.2,17.5c1.5,4.4,3.7,7.8,6.6,10.2c2.9,2.4,6.7,3.6,11.1,3.6
								c3.3,0,6.2-0.7,8.7-2c2.5-1.3,4.5-3.2,6.1-5.7c1.6-2.5,2.9-5.5,3.8-9.1c0.9-3.6,1.4-8.4,1.4-14.5c0-7.2-0.7-13-2.2-17.4
								c-1.5-4.4-3.7-7.8-6.6-10.3c-2.9-2.4-6.7-3.6-11.2-3.6c-5.9,0-10.6,2.1-13.9,6.4C454.1,384.1,452,392.4,452,404z M459.8,404
								c0-10.1,1.2-16.8,3.5-20.1c2.4-3.3,5.3-5,8.7-5c3.5,0,6.4,1.7,8.7,5c2.4,3.3,3.5,10,3.5,20.1c0,10.1-1.2,16.8-3.5,20.1
								c-2.4,3.3-5.3,5-8.8,5c-3.5,0-6.2-1.5-8.3-4.4C461.1,421,459.8,414.1,459.8,404z"/>
						</g>
						<g>
							<path class="st2" d="M503.9,373.7v8.6h8.6v-8.6H503.9z"/>
						</g>
						<g>
							<path class="st2" d="M523.5,404c0,7.3,0.7,13.1,2.2,17.5c1.5,4.4,3.7,7.8,6.6,10.2c2.9,2.4,6.7,3.6,11.1,3.6
								c3.3,0,6.2-0.7,8.7-2c2.5-1.3,4.5-3.2,6.1-5.7c1.6-2.5,2.9-5.5,3.8-9.1c0.9-3.6,1.4-8.4,1.4-14.5c0-7.2-0.7-13-2.2-17.4
								c-1.5-4.4-3.7-7.8-6.6-10.3c-2.9-2.4-6.7-3.6-11.2-3.6c-5.9,0-10.6,2.1-13.9,6.4C525.6,384.1,523.5,392.4,523.5,404z
								 M531.3,404c0-10.1,1.2-16.8,3.5-20.1c2.4-3.3,5.3-5,8.7-5c3.5,0,6.4,1.7,8.7,5s3.5,10,3.5,20.1c0,10.1-1.2,16.8-3.5,20.1
								c-2.4,3.3-5.3,5-8.8,5c-3.5,0-6.2-1.5-8.3-4.4C532.6,421,531.3,414.1,531.3,404z"/>
						</g>
						<g>
							<path id="ArialMT-32" class="st2" d="M610.8,381v-7.2h-40.6c-0.1,1.8,0.2,3.6,0.9,5.2c1,2.8,2.7,5.5,5,8.2
								c2.3,2.7,5.6,5.8,9.9,9.3c6.7,5.5,11.2,9.8,13.5,13c2.3,3.2,3.5,6.2,3.5,9.1c0,3-1.1,5.5-3.2,7.5c-2.1,2.1-4.9,3.1-8.3,3.1
								c-3.6,0-6.5-1.1-8.7-3.3c-2.2-2.2-3.3-5.2-3.3-9l-7.7,0.8c0.5,5.8,2.5,10.2,6,13.2c3.5,3,8.1,4.5,14,4.5
								c5.9,0,10.5-1.6,14-4.9c3.4-3.3,5.2-7.3,5.2-12.1c0-2.5-0.5-4.9-1.5-7.2c-1-2.4-2.7-4.9-5-7.5s-6.2-6.2-11.6-10.8
								c-4.5-3.8-7.4-6.4-8.7-7.7c-1.3-1.3-2.3-2.7-3.2-4.1H610.8z"/>
						</g>
					</g>
				</g>
			</g>
			<g id="ytick_3">
				<g id="line2d_13">
					<g>
						<g>
							<path class="st1" d="M89.9,217.4h-5.1"/>
						</g>
					</g>
				</g>
				<g id="text_13">
					<g transform="translate(14.092969 257.541057)scale(0.11 -0.11)">
						<g>
							<path class="st2" d="M452,364.2c0,7.3,0.7,13.1,2.2,17.5c1.5,4.4,3.7,7.8,6.6,10.2c2.9,2.4,6.7,3.6,11.1,3.6
								c3.3,0,6.2-0.7,8.7-2c2.5-1.3,4.5-3.2,6.1-5.7c1.6-2.5,2.9-5.5,3.8-9.1c0.9-3.6,1.4-8.4,1.4-14.5c0-7.2-0.7-13-2.2-17.4
								c-1.5-4.4-3.7-7.8-6.6-10.3c-2.9-2.4-6.7-3.6-11.2-3.6c-5.9,0-10.6,2.1-13.9,6.4C454.1,344.3,452,352.6,452,364.2z
								 M459.8,364.2c0-10.1,1.2-16.8,3.5-20.1c2.4-3.3,5.3-5,8.7-5c3.5,0,6.4,1.7,8.7,5c2.4,3.3,3.5,10,3.5,20.1
								c0,10.1-1.2,16.8-3.5,20.1c-2.4,3.3-5.3,5-8.8,5c-3.5,0-6.2-1.5-8.3-4.4C461.1,381.2,459.8,374.3,459.8,364.2z"/>
						</g>
						<g>
							<path class="st2" d="M503.9,333.9v8.6h8.6v-8.6H503.9z"/>
						</g>
						<g>
							<path class="st2" d="M523.5,364.2c0,7.3,0.7,13.1,2.2,17.5c1.5,4.4,3.7,7.8,6.6,10.2c2.9,2.4,6.7,3.6,11.1,3.6
								c3.3,0,6.2-0.7,8.7-2c2.5-1.3,4.5-3.2,6.1-5.7c1.6-2.5,2.9-5.5,3.8-9.1c0.9-3.6,1.4-8.4,1.4-14.5c0-7.2-0.7-13-2.2-17.4
								c-1.5-4.4-3.7-7.8-6.6-10.3c-2.9-2.4-6.7-3.6-11.2-3.6c-5.9,0-10.6,2.1-13.9,6.4C525.6,344.3,523.5,352.6,523.5,364.2z
								 M531.3,364.2c0-10.1,1.2-16.8,3.5-20.1c2.4-3.3,5.3-5,8.7-5c3.5,0,6.4,1.7,8.7,5s3.5,10,3.5,20.1c0,10.1-1.2,16.8-3.5,20.1
								c-2.4,3.3-5.3,5-8.8,5c-3.5,0-6.2-1.5-8.3-4.4C532.6,381.2,531.3,374.3,531.3,364.2z"/>
						</g>
						<g>
							<path id="ArialMT-34" class="st2" d="M595.4,333.9v14.7h-26.6v6.9l28,39.8h6.1v-39.8h8.3v-6.9h-8.3v-14.7H595.4z
								 M595.4,355.5v27.7l-19.2-27.7H595.4z"/>
						</g>
					</g>
				</g>
			</g>
			<g id="ytick_4">
				<g id="line2d_14">
					<g>
						<g>
							<path class="st1" d="M89.9,191.1h-5.1"/>
						</g>
					</g>
				</g>
				<g id="text_14">
					<g transform="translate(14.092969 226.843187)scale(0.11 -0.11)">
						<g>
							<path class="st2" d="M452,324.4c0,7.3,0.7,13.1,2.2,17.5c1.5,4.4,3.7,7.8,6.6,10.2c2.9,2.4,6.7,3.6,11.1,3.6
								c3.3,0,6.2-0.7,8.7-2c2.5-1.3,4.5-3.2,6.1-5.7c1.6-2.5,2.9-5.5,3.8-9.1c0.9-3.6,1.4-8.4,1.4-14.5c0-7.2-0.7-13-2.2-17.4
								c-1.5-4.4-3.7-7.8-6.6-10.3c-2.9-2.4-6.7-3.6-11.2-3.6c-5.9,0-10.6,2.1-13.9,6.4C454.1,304.5,452,312.8,452,324.4z
								 M459.8,324.4c0-10.1,1.2-16.8,3.5-20.1c2.4-3.3,5.3-5,8.7-5c3.5,0,6.4,1.7,8.7,5c2.4,3.3,3.5,10,3.5,20.1
								c0,10.1-1.2,16.8-3.5,20.1c-2.4,3.3-5.3,5-8.8,5c-3.5,0-6.2-1.5-8.3-4.4C461.1,341.4,459.8,334.5,459.8,324.4z"/>
						</g>
						<g>
							<path class="st2" d="M503.9,294.1v8.6h8.6v-8.6H503.9z"/>
						</g>
						<g>
							<path class="st2" d="M523.5,324.4c0,7.3,0.7,13.1,2.2,17.5c1.5,4.4,3.7,7.8,6.6,10.2c2.9,2.4,6.7,3.6,11.1,3.6
								c3.3,0,6.2-0.7,8.7-2c2.5-1.3,4.5-3.2,6.1-5.7c1.6-2.5,2.9-5.5,3.8-9.1c0.9-3.6,1.4-8.4,1.4-14.5c0-7.2-0.7-13-2.2-17.4
								c-1.5-4.4-3.7-7.8-6.6-10.3c-2.9-2.4-6.7-3.6-11.2-3.6c-5.9,0-10.6,2.1-13.9,6.4C525.6,304.5,523.5,312.8,523.5,324.4z
								 M531.3,324.4c0-10.1,1.2-16.8,3.5-20.1c2.4-3.3,5.3-5,8.7-5c3.5,0,6.4,1.7,8.7,5c2.4,3.3,3.5,10,3.5,20.1
								c0,10.1-1.2,16.8-3.5,20.1c-2.4,3.3-5.3,5-8.8,5c-3.5,0-6.2-1.5-8.3-4.4C532.6,341.4,531.3,334.5,531.3,324.4z"/>
						</g>
						<g>
							<path id="ArialMT-36" class="st2" d="M610.3,340.4l-7.5-0.6c-0.7,3-1.6,5.1-2.8,6.4c-2,2.2-4.6,3.2-7.5,3.2
								c-2.4,0-4.5-0.7-6.3-2c-2.4-1.7-4.2-4.3-5.6-7.6c-1.4-3.3-2.1-8.1-2.1-14.2c1.8,2.8,4,4.8,6.7,6.1s5.4,2,8.3,2
								c5,0,9.3-1.8,12.8-5.5c3.5-3.7,5.3-8.5,5.3-14.3c0-3.9-0.8-7.4-2.5-10.7c-1.7-3.3-3.9-5.8-6.8-7.6s-6.2-2.6-9.9-2.6
								c-6.3,0-11.4,2.3-15.4,6.9c-4,4.6-5.9,12.2-5.9,22.8c0,11.9,2.2,20.5,6.6,25.9c3.8,4.7,9,7,15.4,7c4.8,0,8.8-1.4,11.9-4.1
								C607.9,349,609.7,345.2,610.3,340.4z M579.6,314c0-2.6,0.5-5.1,1.6-7.4c1.1-2.4,2.6-4.2,4.6-5.4c2-1.2,4.1-1.9,6.2-1.9
								c3.2,0,5.9,1.3,8.2,3.8c2.3,2.6,3.4,6.1,3.4,10.5c0,4.2-1.1,7.6-3.4,10c-2.3,2.4-5.1,3.7-8.5,3.7c-3.4,0-6.3-1.2-8.7-3.7
								C580.7,321.2,579.6,317.9,579.6,314z"/>
						</g>
					</g>
				</g>
			</g>
			<g id="ytick_5">
				<g id="line2d_15">
					<g>
						<g>
							<path class="st1" d="M89.9,164.8h-5.1"/>
						</g>
					</g>
				</g>
				<g id="text_15">
					<g transform="translate(14.092969 196.145317)scale(0.11 -0.11)">
						<g>
							<path class="st2" d="M452,284.6c0,7.3,0.7,13.1,2.2,17.5c1.5,4.4,3.7,7.8,6.6,10.2c2.9,2.4,6.7,3.6,11.1,3.6
								c3.3,0,6.2-0.7,8.7-2c2.5-1.3,4.5-3.2,6.1-5.7c1.6-2.5,2.9-5.5,3.8-9.1c0.9-3.6,1.4-8.4,1.4-14.5c0-7.2-0.7-13-2.2-17.4
								c-1.5-4.4-3.7-7.8-6.6-10.3c-2.9-2.4-6.7-3.6-11.2-3.6c-5.9,0-10.6,2.1-13.9,6.4C454.1,264.7,452,273,452,284.6z
								 M459.8,284.6c0-10.1,1.2-16.8,3.5-20.1c2.4-3.3,5.3-5,8.7-5c3.5,0,6.4,1.7,8.7,5c2.4,3.3,3.5,10,3.5,20.1
								c0,10.1-1.2,16.8-3.5,20.1c-2.4,3.3-5.3,5-8.8,5c-3.5,0-6.2-1.5-8.3-4.4C461.1,301.6,459.8,294.7,459.8,284.6z"/>
						</g>
						<g>
							<path class="st2" d="M503.9,254.3v8.6h8.6v-8.6H503.9z"/>
						</g>
						<g>
							<path class="st2" d="M523.5,284.6c0,7.3,0.7,13.1,2.2,17.5c1.5,4.4,3.7,7.8,6.6,10.2c2.9,2.4,6.7,3.6,11.1,3.6
								c3.3,0,6.2-0.7,8.7-2c2.5-1.3,4.5-3.2,6.1-5.7c1.6-2.5,2.9-5.5,3.8-9.1c0.9-3.6,1.4-8.4,1.4-14.5c0-7.2-0.7-13-2.2-17.4
								c-1.5-4.4-3.7-7.8-6.6-10.3c-2.9-2.4-6.7-3.6-11.2-3.6c-5.9,0-10.6,2.1-13.9,6.4C525.6,264.7,523.5,273,523.5,284.6z
								 M531.3,284.6c0-10.1,1.2-16.8,3.5-20.1c2.4-3.3,5.3-5,8.7-5c3.5,0,6.4,1.7,8.7,5c2.4,3.3,3.5,10,3.5,20.1
								c0,10.1-1.2,16.8-3.5,20.1c-2.4,3.3-5.3,5-8.8,5c-3.5,0-6.2-1.5-8.3-4.4C532.6,301.6,531.3,294.7,531.3,284.6z"/>
						</g>
						<g>
							<path id="ArialMT-38" class="st2" d="M582.8,287.6c-3.1,1.2-5.4,2.8-7,4.9c-1.5,2.1-2.3,4.7-2.3,7.6c0,4.5,1.6,8.2,4.8,11.3
								c3.2,3,7.5,4.6,12.8,4.6c5.4,0,9.7-1.6,12.9-4.7c3.3-3.1,4.9-6.9,4.9-11.4c0-2.8-0.8-5.3-2.3-7.4c-1.5-2.1-3.8-3.7-6.8-4.9
								c3.8-1.2,6.6-3.2,8.6-5.9c2-2.7,2.9-6,2.9-9.8c0-5.2-1.9-9.7-5.6-13.2c-3.7-3.6-8.6-5.4-14.6-5.4c-6.1,0-10.9,1.8-14.7,5.4
								c-3.7,3.6-5.6,8.1-5.6,13.4c0,4,1,7.3,3,10C576.2,284.8,579.1,286.6,582.8,287.6z M581.3,300.4c0-2.9,0.9-5.3,2.8-7.1
								c1.9-1.8,4.3-2.8,7.3-2.8c2.9,0,5.3,0.9,7.1,2.7c1.9,1.8,2.8,4.1,2.8,6.7c0,2.8-1,5.1-2.9,7c-1.9,1.9-4.3,2.8-7.1,2.8
								c-2.9,0-5.3-0.9-7.2-2.8C582.3,305.1,581.3,302.9,581.3,300.4z M578.9,272c0-2.2,0.5-4.2,1.5-6.2c1-2,2.5-3.6,4.5-4.7
								c2-1.1,4.2-1.6,6.5-1.6c3.6,0,6.6,1.2,8.9,3.5c2.3,2.3,3.5,5.3,3.5,8.8c0,3.6-1.2,6.6-3.6,9c-2.4,2.4-5.4,3.6-9.1,3.6
								c-3.5,0-6.5-1.2-8.8-3.5C580,278.5,578.9,275.5,578.9,272z"/>
						</g>
					</g>
				</g>
			</g>
			<g id="ytick_6">
				<g id="line2d_16">
					<g>
						<g>
							<path class="st1" d="M89.9,138.5h-5.1"/>
						</g>
					</g>
				</g>
				<g id="text_16">
					<g transform="translate(14.092969 165.447447)scale(0.11 -0.11)">
						<g>
							<path class="st2" d="M452,244.8c0,7.3,0.7,13.1,2.2,17.5c1.5,4.4,3.7,7.8,6.6,10.2c2.9,2.4,6.7,3.6,11.1,3.6
								c3.3,0,6.2-0.7,8.7-2c2.5-1.3,4.5-3.2,6.1-5.7c1.6-2.5,2.9-5.5,3.8-9.1c0.9-3.6,1.4-8.4,1.4-14.5c0-7.2-0.7-13-2.2-17.4
								c-1.5-4.4-3.7-7.8-6.6-10.3c-2.9-2.4-6.7-3.6-11.2-3.6c-5.9,0-10.6,2.1-13.9,6.4C454.1,224.9,452,233.2,452,244.8z
								 M459.8,244.8c0-10.1,1.2-16.8,3.5-20.1c2.4-3.3,5.3-5,8.7-5c3.5,0,6.4,1.7,8.7,5c2.4,3.3,3.5,10,3.5,20.1
								c0,10.1-1.2,16.8-3.5,20.1c-2.4,3.3-5.3,5-8.8,5c-3.5,0-6.2-1.5-8.3-4.4C461.1,261.8,459.8,254.9,459.8,244.8z"/>
						</g>
						<g>
							<path class="st2" d="M503.9,214.5v8.6h8.6v-8.6H503.9z"/>
						</g>
						<g>
							<path id="ArialMT-31" class="st2" d="M551.9,214.5h-7.5v48c-1.8-1.7-4.2-3.5-7.1-5.2s-5.6-3-7.9-3.9v7.3
								c4.2,2,7.9,4.4,11.1,7.2c3.2,2.8,5.4,5.6,6.7,8.2h4.8V214.5z"/>
						</g>
						<g>
							<path class="st2" d="M571.2,244.8c0,7.3,0.7,13.1,2.2,17.5c1.5,4.4,3.7,7.8,6.6,10.2c2.9,2.4,6.7,3.6,11.1,3.6
								c3.3,0,6.2-0.7,8.7-2c2.5-1.3,4.5-3.2,6.1-5.7c1.6-2.5,2.9-5.5,3.8-9.1c0.9-3.6,1.4-8.4,1.4-14.5c0-7.2-0.7-13-2.2-17.4
								c-1.5-4.4-3.7-7.8-6.6-10.3c-2.9-2.4-6.7-3.6-11.2-3.6c-5.9,0-10.6,2.1-13.9,6.4C573.2,224.9,571.2,233.2,571.2,244.8z
								 M579,244.8c0-10.1,1.2-16.8,3.5-20.1c2.4-3.3,5.3-5,8.7-5c3.5,0,6.4,1.7,8.7,5c2.4,3.3,3.5,10,3.5,20.1
								c0,10.1-1.2,16.8-3.5,20.1c-2.4,3.3-5.3,5-8.8,5c-3.5,0-6.2-1.5-8.3-4.4C580.3,261.8,579,254.9,579,244.8z"/>
						</g>
					</g>
				</g>
			</g>
			<g id="ytick_7">
				<g id="line2d_17">
					<g>
						<g>
							<path class="st1" d="M89.9,112.2h-5.1"/>
						</g>
					</g>
				</g>
				<g id="text_17">
					<g transform="translate(14.092969 134.749577)scale(0.11 -0.11)">
						<g>
							<path class="st2" d="M452,205c0,7.3,0.7,13.1,2.2,17.5c1.5,4.4,3.7,7.8,6.6,10.2c2.9,2.4,6.7,3.6,11.1,3.6
								c3.3,0,6.2-0.7,8.7-2c2.5-1.3,4.5-3.2,6.1-5.7c1.6-2.5,2.9-5.5,3.8-9.1c0.9-3.6,1.4-8.4,1.4-14.5c0-7.2-0.7-13-2.2-17.4
								c-1.5-4.4-3.7-7.8-6.6-10.3c-2.9-2.4-6.7-3.6-11.2-3.6c-5.9,0-10.6,2.1-13.9,6.4C454.1,185.1,452,193.4,452,205z M459.8,205
								c0-10.1,1.2-16.8,3.5-20.1c2.4-3.3,5.3-5,8.7-5c3.5,0,6.4,1.7,8.7,5c2.4,3.3,3.5,10,3.5,20.1c0,10.1-1.2,16.8-3.5,20.1
								c-2.4,3.3-5.3,5-8.8,5c-3.5,0-6.2-1.5-8.3-4.4C461.1,222,459.8,215,459.8,205z"/>
						</g>
						<g>
							<path class="st2" d="M503.9,174.7v8.6h8.6v-8.6H503.9z"/>
						</g>
						<g>
							<path class="st2" d="M551.9,174.7h-7.5v48c-1.8-1.7-4.2-3.5-7.1-5.2c-2.9-1.7-5.6-3-7.9-3.9v7.3c4.2,2,7.9,4.4,11.1,7.2
								c3.2,2.8,5.4,5.6,6.7,8.2h4.8V174.7z"/>
						</g>
						<g>
							<path class="st2" d="M610.8,182v-7.2h-40.6c-0.1,1.8,0.2,3.6,0.9,5.2c1,2.8,2.7,5.5,5,8.2c2.3,2.7,5.6,5.8,9.9,9.3
								c6.7,5.5,11.2,9.8,13.5,13c2.3,3.2,3.5,6.2,3.5,9.1c0,3-1.1,5.5-3.2,7.5c-2.1,2.1-4.9,3.1-8.3,3.1c-3.6,0-6.5-1.1-8.7-3.3
								c-2.2-2.2-3.3-5.2-3.3-9l-7.7,0.8c0.5,5.8,2.5,10.2,6,13.2c3.5,3,8.1,4.5,14,4.5c5.9,0,10.5-1.6,14-4.9
								c3.4-3.3,5.2-7.3,5.2-12.1c0-2.5-0.5-4.9-1.5-7.2c-1-2.4-2.7-4.9-5-7.5c-2.3-2.6-6.2-6.2-11.6-10.8c-4.5-3.8-7.4-6.4-8.7-7.7
								c-1.3-1.3-2.3-2.7-3.2-4.1H610.8z"/>
						</g>
					</g>
				</g>
			</g>
			<g id="ytick_8">
				<g id="line2d_18">
					<g>
						<g>
							<path class="st1" d="M89.9,85.8h-5.1"/>
						</g>
					</g>
				</g>
				<g id="text_18">
					<g transform="translate(14.092969 104.051707)scale(0.11 -0.11)">
						<g>
							<path class="st2" d="M452,165.2c0,7.3,0.7,13.1,2.2,17.5c1.5,4.4,3.7,7.8,6.6,10.2c2.9,2.4,6.7,3.6,11.1,3.6
								c3.3,0,6.2-0.7,8.7-2c2.5-1.3,4.5-3.2,6.1-5.7c1.6-2.5,2.9-5.5,3.8-9.1c0.9-3.6,1.4-8.4,1.4-14.5c0-7.2-0.7-13-2.2-17.4
								c-1.5-4.4-3.7-7.8-6.6-10.3c-2.9-2.4-6.7-3.6-11.2-3.6c-5.9,0-10.6,2.1-13.9,6.4C454.1,145.3,452,153.6,452,165.2z
								 M459.8,165.2c0-10.1,1.2-16.8,3.5-20.1c2.4-3.3,5.3-5,8.7-5c3.5,0,6.4,1.7,8.7,5c2.4,3.3,3.5,10,3.5,20.1
								c0,10.1-1.2,16.8-3.5,20.1c-2.4,3.3-5.3,5-8.8,5c-3.5,0-6.2-1.5-8.3-4.4C461.1,182.2,459.8,175.2,459.8,165.2z"/>
						</g>
						<g>
							<path class="st2" d="M503.9,134.9v8.6h8.6v-8.6H503.9z"/>
						</g>
						<g>
							<path class="st2" d="M551.9,134.9h-7.5v48c-1.8-1.7-4.2-3.5-7.1-5.2c-2.9-1.7-5.6-3-7.9-3.9v7.3c4.2,2,7.9,4.4,11.1,7.2
								c3.2,2.8,5.4,5.6,6.7,8.2h4.8V134.9z"/>
						</g>
						<g>
							<path class="st2" d="M595.4,134.9v14.7h-26.6v6.9l28,39.8h6.1v-39.8h8.3v-6.9h-8.3v-14.7H595.4z M595.4,156.5v27.7
								l-19.2-27.7H595.4z"/>
						</g>
					</g>
				</g>
			</g>
			<g id="ytick_9">
				<g id="line2d_19">
					<g>
						<g>
							<path class="st1" d="M89.9,59.5h-5.1"/>
						</g>
					</g>
				</g>
				<g id="text_19">
					<g transform="translate(14.092969 73.353837)scale(0.11 -0.11)">
						<g>
							<path class="st2" d="M452,125.4c0,7.3,0.7,13.1,2.2,17.5c1.5,4.4,3.7,7.8,6.6,10.2c2.9,2.4,6.7,3.6,11.1,3.6
								c3.3,0,6.2-0.7,8.7-2c2.5-1.3,4.5-3.2,6.1-5.7c1.6-2.5,2.9-5.5,3.8-9.1c0.9-3.6,1.4-8.4,1.4-14.5c0-7.2-0.7-13-2.2-17.4
								c-1.5-4.4-3.7-7.8-6.6-10.3c-2.9-2.4-6.7-3.6-11.2-3.6c-5.9,0-10.6,2.1-13.9,6.4C454.1,105.5,452,113.8,452,125.4z
								 M459.8,125.4c0-10.1,1.2-16.8,3.5-20.1c2.4-3.3,5.3-5,8.7-5c3.5,0,6.4,1.7,8.7,5c2.4,3.3,3.5,10,3.5,20.1
								c0,10.1-1.2,16.8-3.5,20.1c-2.4,3.3-5.3,5-8.8,5c-3.5,0-6.2-1.5-8.3-4.4C461.1,142.4,459.8,135.4,459.8,125.4z"/>
						</g>
						<g>
							<path class="st2" d="M503.9,95.1v8.6h8.6v-8.6H503.9z"/>
						</g>
						<g>
							<path class="st2" d="M551.9,95.1h-7.5v48c-1.8-1.7-4.2-3.5-7.1-5.2c-2.9-1.7-5.6-3-7.9-3.9v7.3c4.2,2,7.9,4.4,11.1,7.2
								c3.2,2.8,5.4,5.6,6.7,8.2h4.8V95.1z"/>
						</g>
						<g>
							<path class="st2" d="M610.3,141.4l-7.5-0.6c-0.7,3-1.6,5.1-2.8,6.4c-2,2.2-4.6,3.2-7.5,3.2c-2.4,0-4.5-0.7-6.3-2
								c-2.4-1.7-4.2-4.3-5.6-7.6c-1.4-3.3-2.1-8.1-2.1-14.2c1.8,2.8,4,4.8,6.7,6.1s5.4,2,8.3,2c5,0,9.3-1.8,12.8-5.5
								c3.5-3.7,5.3-8.5,5.3-14.3c0-3.9-0.8-7.4-2.5-10.7c-1.7-3.3-3.9-5.8-6.8-7.6c-2.9-1.8-6.2-2.6-9.9-2.6
								c-6.3,0-11.4,2.3-15.4,6.9c-4,4.6-5.9,12.2-5.9,22.8c0,11.9,2.2,20.5,6.6,25.9c3.8,4.7,9,7,15.4,7c4.8,0,8.8-1.4,11.9-4.1
								C607.9,150,609.7,146.2,610.3,141.4z M579.6,115c0-2.6,0.5-5.1,1.6-7.4c1.1-2.4,2.6-4.2,4.6-5.4c2-1.2,4.1-1.9,6.2-1.9
								c3.2,0,5.9,1.3,8.2,3.8c2.3,2.6,3.4,6.1,3.4,10.5c0,4.2-1.1,7.6-3.4,10c-2.3,2.4-5.1,3.7-8.5,3.7c-3.4,0-6.3-1.2-8.7-3.7
								C580.7,122.2,579.6,118.9,579.6,115z"/>
						</g>
					</g>
				</g>
			</g>
			<g id="text_20">
				<g transform="translate(7.707969 248.794688)rotate(-90)scale(0.12 -0.12)">
					<g>
						<path id="ArialMT-46" class="st2" d="M302.7-418.7v61.4h41.4v-7.2h-33.3v-19h28.8v-7.2h-28.8v-27.9H302.7z"/>
					</g>
					<g>
						<path class="st2" d="M384.1-404.4l7.8-1c-1.2-4.5-3.5-8.1-6.8-10.6c-3.3-2.5-7.6-3.8-12.7-3.8c-6.5,0-11.7,2-15.5,6
							c-3.8,4-5.7,9.6-5.7,16.9c0,7.5,1.9,13.3,5.8,17.4c3.9,4.1,8.9,6.2,15,6.2c5.9,0,10.8-2,14.6-6.1c3.8-4,5.7-9.7,5.7-17.1
							c0-0.4,0-1.1,0-2H359c0.3-4.9,1.7-8.6,4.1-11.2c2.5-2.6,5.6-3.9,9.3-3.9c2.8,0,5.1,0.7,7.1,2.2
							C381.5-409.9,383-407.5,384.1-404.4z M359.4-392.2h24.8c-0.3,3.7-1.3,6.5-2.8,8.4c-2.4,2.9-5.5,4.4-9.3,4.4
							c-3.5,0-6.4-1.2-8.7-3.5S359.7-388.3,359.4-392.2z"/>
					</g>
					<g>
						<path class="st2" d="M430.4-413.2c-2.8-2.4-5.5-4-8.1-5c-2.6-1-5.3-1.5-8.3-1.5c-4.9,0-8.6,1.2-11.3,3.6s-3.9,5.4-3.9,9.1
							c0,2.2,0.5,4.2,1.5,6c1,1.8,2.3,3.3,3.9,4.3c1.6,1.1,3.4,1.9,5.4,2.5c1.5,0.4,3.7,0.8,6.7,1.1c6.1,0.7,10.6,1.6,13.4,2.6
							c0,1,0,1.7,0,2c0,3.1-0.7,5.2-2.1,6.5c-1.9,1.7-4.8,2.5-8.6,2.5c-3.5,0-6.2-0.6-7.9-1.9c-1.7-1.2-2.9-3.4-3.8-6.6l-7.4,1
							c0.7,3.2,1.8,5.7,3.3,7.6c1.5,1.9,3.8,3.4,6.7,4.5c2.9,1.1,6.3,1.6,10.1,1.6c3.8,0,6.9-0.4,9.2-1.3c2.4-0.9,4.1-2,5.2-3.4
							c1.1-1.3,1.9-3.1,2.3-5.1c0.3-1.3,0.4-3.6,0.4-6.9v-10c0-7,0.2-11.4,0.5-13.3c0.3-1.8,1-3.6,1.9-5.3h-7.9
							C431.1-417.1,430.6-415.3,430.4-413.2z M429.8-396.4c-2.7-1.1-6.8-2.1-12.3-2.9c-3.1-0.4-5.3-1-6.6-1.5
							c-1.3-0.6-2.3-1.4-3-2.4c-0.7-1.1-1-2.3-1-3.6c0-2,0.8-3.7,2.3-5c1.5-1.3,3.8-2,6.7-2c2.9,0,5.5,0.6,7.7,1.9
							c2.3,1.3,3.9,3,5,5.2c0.8,1.7,1.2,4.2,1.2,7.5V-396.4z"/>
					</g>
					<g>
						<path class="st2" d="M465.5-411.9l1.1-6.7c-2.1-0.4-4-0.7-5.7-0.7c-2.7,0-4.9,0.4-6.4,1.3c-1.5,0.9-2.6,2-3.2,3.4
							c-0.6,1.4-0.9,4.4-0.9,8.9v25.6h-5.5v5.9h5.5v11l7.5,4.5v-15.5h7.6v-5.9h-7.6v-26c0-2.2,0.1-3.5,0.4-4.2
							c0.3-0.6,0.7-1.1,1.3-1.5c0.6-0.4,1.5-0.5,2.6-0.5C463.1-412.2,464.2-412.1,465.5-411.9z"/>
					</g>
					<g>
						<path class="st2" d="M502-418.7v6.5c-3.5-5-8.2-7.5-14.1-7.5c-2.6,0-5.1,0.5-7.4,1.5c-2.3,1-4,2.3-5.1,3.8
							c-1.1,1.5-1.9,3.4-2.3,5.6c-0.3,1.5-0.5,3.8-0.5,7v27.5h7.5v-24.7c0-3.9,0.2-6.6,0.5-8c0.5-2,1.5-3.5,3-4.7
							c1.5-1.1,3.4-1.7,5.7-1.7c2.3,0,4.4,0.6,6.4,1.7s3.4,2.7,4.2,4.7c0.8,2,1.2,4.9,1.2,8.7v23.8h7.5v-44.5H502z"/>
					</g>
					<g>
						<path class="st2" d="M520.5-418.7v44.5h6.8v-6.7c1.7,3.2,3.3,5.2,4.8,6.2c1.5,1,3.1,1.5,4.8,1.5c2.5,0,5.1-0.8,7.7-2.4l-2.6-7
							c-1.8,1.1-3.7,1.6-5.5,1.6c-1.7,0-3.1-0.5-4.4-1.5c-1.3-1-2.2-2.4-2.8-4.1c-0.8-2.7-1.3-5.6-1.3-8.8v-23.3H520.5z"/>
					</g>
					<g>
						<path class="st2" d="M579.6-404.4l7.8-1c-1.2-4.5-3.5-8.1-6.8-10.6c-3.3-2.5-7.6-3.8-12.7-3.8c-6.5,0-11.7,2-15.5,6
							c-3.8,4-5.7,9.6-5.7,16.9c0,7.5,1.9,13.3,5.8,17.4c3.9,4.1,8.9,6.2,15,6.2c5.9,0,10.8-2,14.6-6.1s5.7-9.7,5.7-17.1
							c0-0.4,0-1.1,0-2h-33.2c0.3-4.9,1.7-8.6,4.1-11.2c2.5-2.6,5.6-3.9,9.3-3.9c2.8,0,5.1,0.7,7.1,2.2
							C576.9-409.9,578.4-407.5,579.6-404.4z M554.8-392.2h24.8c-0.3,3.7-1.3,6.5-2.8,8.4c-2.4,2.9-5.5,4.4-9.3,4.4
							c-3.5,0-6.4-1.2-8.7-3.5C556.4-385.2,555.1-388.3,554.8-392.2z"/>
					</g>
					<g>
						<path class="st2" d="M591.2-418.7"/>
					</g>
					<g>
						<path class="st2" d="M623-418.7v61.4h8.1v-61.4H623z"/>
					</g>
					<g>
						<path class="st2" d="M644.5-418.7v44.5h6.7v-6.2c1.4,2.2,3.2,3.9,5.6,5.3c2.3,1.3,5,2,7.9,2c3.3,0,6-0.7,8.1-2
							c2.1-1.4,3.6-3.3,4.5-5.7c3.5,5.2,8.1,7.8,13.7,7.8c4.4,0,7.8-1.2,10.2-3.7c2.4-2.4,3.6-6.2,3.6-11.3v-30.5h-7.5v28
							c0,3-0.2,5.2-0.7,6.5c-0.5,1.3-1.4,2.4-2.7,3.2c-1.3,0.8-2.8,1.2-4.5,1.2c-3.1,0-5.7-1-7.8-3.1c-2.1-2.1-3.1-5.4-3.1-10v-25.8
							h-7.5v28.9c0,3.3-0.6,5.9-1.8,7.5c-1.2,1.7-3.2,2.5-6,2.5c-2.1,0-4.1-0.6-5.9-1.7c-1.8-1.1-3.1-2.8-3.9-4.9
							c-0.8-2.1-1.2-5.2-1.2-9.3v-23.1H644.5z"/>
					</g>
					<g>
						<path class="st2" d="M715.9-435.7v61.5h6.9v-5.8c1.6,2.3,3.5,4,5.5,5.1c2,1.1,4.5,1.7,7.4,1.7c3.8,0,7.1-1,10-2.9
							c2.9-2,5.1-4.7,6.6-8.3c1.5-3.6,2.2-7.5,2.2-11.7c0-4.5-0.8-8.6-2.5-12.3c-1.6-3.6-4-6.4-7.1-8.4c-3.1-1.9-6.4-2.9-9.8-2.9
							c-2.5,0-4.8,0.5-6.8,1.6c-2,1.1-3.6,2.4-4.9,4v-21.6H715.9z M722.7-396.7c0-5.7,1.2-10,3.5-12.7c2.3-2.7,5.1-4.1,8.4-4.1
							c3.3,0,6.2,1.4,8.6,4.2c2.4,2.8,3.6,7.2,3.6,13.2c0,5.7-1.2,9.9-3.5,12.7c-2.3,2.8-5.1,4.2-8.3,4.2c-3.2,0-6.1-1.5-8.5-4.5
							C723.9-386.6,722.7-391,722.7-396.7z"/>
					</g>
					<g>
						<path class="st2" d="M760.8-396.5c0,8.2,2.3,14.3,6.9,18.3c3.8,3.3,8.5,4.9,14,4.9c6.1,0,11.1-2,15-6c3.9-4,5.8-9.5,5.8-16.6
							c0-5.7-0.9-10.2-2.6-13.5c-1.7-3.3-4.2-5.8-7.5-7.6c-3.3-1.8-6.9-2.7-10.7-2.7c-6.2,0-11.3,2-15.1,6
							C762.7-409.7,760.8-404,760.8-396.5z M768.5-396.5c0-5.7,1.2-9.9,3.7-12.8c2.5-2.8,5.6-4.2,9.4-4.2c3.7,0,6.9,1.4,9.3,4.3
							c2.5,2.8,3.7,7.2,3.7,13c0,5.5-1.3,9.7-3.8,12.5c-2.5,2.8-5.6,4.2-9.3,4.2c-3.8,0-6.9-1.4-9.4-4.2
							C769.7-386.5,768.5-390.8,768.5-396.5z"/>
					</g>
					<g>
						<path class="st2" d="M811.2-418.7v44.5h6.8v-6.7c1.7,3.2,3.3,5.2,4.8,6.2c1.5,1,3.1,1.5,4.8,1.5c2.5,0,5.1-0.8,7.7-2.4l-2.6-7
							c-1.8,1.1-3.7,1.6-5.5,1.6c-1.7,0-3.1-0.5-4.4-1.5c-1.3-1-2.2-2.4-2.8-4.1c-0.8-2.7-1.3-5.6-1.3-8.8v-23.3H811.2z"/>
					</g>
					<g>
						<path class="st2" d="M856.2-411.9l1.1-6.7c-2.1-0.4-4-0.7-5.7-0.7c-2.7,0-4.9,0.4-6.4,1.3c-1.5,0.9-2.6,2-3.2,3.4
							c-0.6,1.4-0.9,4.4-0.9,8.9v25.6h-5.5v5.9h5.5v11l7.5,4.5v-15.5h7.6v-5.9h-7.6v-26c0-2.2,0.1-3.5,0.4-4.2
							c0.3-0.6,0.7-1.1,1.3-1.5c0.6-0.4,1.5-0.5,2.6-0.5C853.8-412.2,854.9-412.1,856.2-411.9z"/>
					</g>
					<g>
						<path class="st2" d="M892.6-413.2c-2.8-2.4-5.5-4-8.1-5c-2.6-1-5.3-1.5-8.3-1.5c-4.9,0-8.6,1.2-11.3,3.6s-3.9,5.4-3.9,9.1
							c0,2.2,0.5,4.2,1.5,6c1,1.8,2.3,3.3,3.9,4.3s3.4,1.9,5.4,2.5c1.5,0.4,3.7,0.8,6.7,1.1c6.1,0.7,10.6,1.6,13.4,2.6
							c0,1,0,1.7,0,2c0,3.1-0.7,5.2-2.1,6.5c-1.9,1.7-4.8,2.5-8.6,2.5c-3.5,0-6.2-0.6-7.9-1.9s-2.9-3.4-3.8-6.6l-7.4,1
							c0.7,3.2,1.8,5.7,3.3,7.6s3.8,3.4,6.7,4.5c2.9,1.1,6.3,1.6,10.1,1.6c3.8,0,6.9-0.4,9.2-1.3c2.4-0.9,4.1-2,5.2-3.4
							c1.1-1.3,1.9-3.1,2.3-5.1c0.3-1.3,0.4-3.6,0.4-6.9v-10c0-7,0.2-11.4,0.5-13.3c0.3-1.8,1-3.6,1.9-5.3h-7.9
							C893.4-417.1,892.9-415.3,892.6-413.2z M892-396.4c-2.7-1.1-6.8-2.1-12.3-2.9c-3.1-0.4-5.3-1-6.6-1.5c-1.3-0.6-2.3-1.4-3-2.4
							c-0.7-1.1-1-2.3-1-3.6c0-2,0.8-3.7,2.3-5c1.5-1.3,3.8-2,6.7-2c2.9,0,5.5,0.6,7.7,1.9s3.9,3,5,5.2c0.8,1.7,1.2,4.2,1.2,7.5
							V-396.4z"/>
					</g>
					<g>
						<path class="st2" d="M911.3-418.7v44.5h6.8v-6.3c3.3,4.9,8,7.3,14.1,7.3c2.7,0,5.1-0.5,7.4-1.4c2.3-1,3.9-2.2,5.1-3.8
							c1.1-1.6,1.9-3.4,2.3-5.6c0.3-1.4,0.4-3.8,0.4-7.3v-27.3h-7.5v27c0,3.1-0.3,5.4-0.9,6.9c-0.6,1.5-1.6,2.7-3.1,3.6
							c-1.5,0.9-3.2,1.4-5.3,1.4c-3.2,0-6-1-8.3-3.1s-3.5-5.9-3.5-11.6v-24.3H911.3z"/>
					</g>
					<g>
						<path class="st2" d="M988-402.4l7.4-1c-0.8-5.1-2.9-9.1-6.2-12c-3.3-2.9-7.4-4.3-12.3-4.3c-6.1,0-11,2-14.7,6
							c-3.7,4-5.5,9.7-5.5,17.1c0,4.8,0.8,9,2.4,12.6c1.6,3.6,4,6.3,7.3,8.1c3.3,1.8,6.8,2.7,10.6,2.7c4.8,0,8.8-1.2,11.8-3.7
							c3.1-2.4,5-5.9,5.9-10.4l-7.3-1.1c-0.7,3-1.9,5.2-3.7,6.7c-1.8,1.5-3.9,2.3-6.4,2.3c-3.8,0-6.9-1.4-9.3-4.1
							c-2.4-2.7-3.6-7-3.6-12.9c0-6,1.1-10.3,3.4-13c2.3-2.7,5.3-4.1,9-4.1c3,0,5.4,0.9,7.4,2.7C986.2-409,987.5-406.2,988-402.4z"
							/>
					</g>
					<g>
						<path class="st2" d="M1032.3-404.4l7.8-1c-1.2-4.5-3.5-8.1-6.8-10.6c-3.3-2.5-7.6-3.8-12.7-3.8c-6.5,0-11.7,2-15.5,6
							c-3.8,4-5.7,9.6-5.7,16.9c0,7.5,1.9,13.3,5.8,17.4c3.9,4.1,8.9,6.2,15,6.2c5.9,0,10.8-2,14.6-6.1s5.7-9.7,5.7-17.1
							c0-0.4,0-1.1,0-2h-33.2c0.3-4.9,1.7-8.6,4.1-11.2c2.5-2.6,5.6-3.9,9.3-3.9c2.8,0,5.1,0.7,7.1,2.2
							C1029.6-409.9,1031.1-407.5,1032.3-404.4z M1007.5-392.2h24.8c-0.3,3.7-1.3,6.5-2.8,8.4c-2.4,2.9-5.5,4.4-9.3,4.4
							c-3.5,0-6.4-1.2-8.7-3.5C1009.1-385.2,1007.8-388.3,1007.5-392.2z"/>
					</g>
					<g>
						<path class="st2" d="M1043.9-418.7"/>
					</g>
					<g>
						<path class="st2" d="M1071.6-399l7.6,0.7c0.4-3.1,1.2-5.6,2.5-7.6c1.3-2,3.4-3.6,6.2-4.8c2.8-1.2,5.9-1.8,9.4-1.8
							c3.1,0,5.8,0.5,8.2,1.4c2.4,0.9,4.1,2.2,5.3,3.8c1.2,1.6,1.7,3.4,1.7,5.3c0,1.9-0.6,3.6-1.7,5c-1.1,1.4-3,2.6-5.5,3.6
							c-1.7,0.6-5.3,1.6-10.9,3c-5.6,1.4-9.6,2.6-11.8,3.8c-2.9,1.5-5.1,3.4-6.6,5.7c-1.4,2.3-2.1,4.8-2.1,7.6c0,3.1,0.9,6,2.6,8.7
							c1.8,2.7,4.3,4.7,7.7,6.1c3.4,1.4,7.1,2.1,11.3,2.1c4.5,0,8.6-0.7,12-2.2c3.5-1.5,6.2-3.6,8-6.5c1.9-2.8,2.9-6.1,3-9.7
							l-7.8-0.6c-0.4,3.9-1.8,6.8-4.3,8.8c-2.4,2-6,3-10.7,3c-4.9,0-8.5-0.9-10.7-2.7c-2.2-1.8-3.4-4-3.4-6.5c0-2.2,0.8-4,2.4-5.5
							c1.6-1.4,5.6-2.9,12.2-4.4c6.6-1.5,11.1-2.8,13.6-3.9c3.6-1.7,6.2-3.7,7.9-6.3c1.7-2.5,2.6-5.4,2.6-8.7c0-3.3-0.9-6.4-2.8-9.2
							c-1.9-2.9-4.6-5.1-8.1-6.7c-3.5-1.6-7.4-2.4-11.8-2.4c-5.6,0-10.2,0.8-14,2.4c-3.8,1.6-6.7,4.1-8.8,7.3
							C1072.8-406.7,1071.7-403.1,1071.6-399z"/>
					</g>
					<g>
						<path class="st2" d="M1159.6-402.4l7.4-1c-0.8-5.1-2.9-9.1-6.2-12c-3.3-2.9-7.4-4.3-12.3-4.3c-6.1,0-11,2-14.7,6
							c-3.7,4-5.5,9.7-5.5,17.1c0,4.8,0.8,9,2.4,12.6c1.6,3.6,4,6.3,7.3,8.1c3.3,1.8,6.8,2.7,10.6,2.7c4.8,0,8.8-1.2,11.8-3.7
							c3.1-2.4,5-5.9,5.9-10.4l-7.3-1.1c-0.7,3-1.9,5.2-3.7,6.7c-1.8,1.5-3.9,2.3-6.4,2.3c-3.8,0-6.9-1.4-9.3-4.1
							c-2.4-2.7-3.6-7-3.6-12.9c0-6,1.1-10.3,3.4-13c2.3-2.7,5.3-4.1,9-4.1c3,0,5.4,0.9,7.4,2.7C1157.8-409,1159-406.2,1159.6-402.4
							z"/>
					</g>
					<g>
						<path class="st2" d="M1170.6-396.5c0,8.2,2.3,14.3,6.9,18.3c3.8,3.3,8.5,4.9,14,4.9c6.1,0,11.1-2,15-6c3.9-4,5.8-9.5,5.8-16.6
							c0-5.7-0.9-10.2-2.6-13.5c-1.7-3.3-4.2-5.8-7.5-7.6c-3.3-1.8-6.9-2.7-10.7-2.7c-6.2,0-11.3,2-15.1,6
							C1172.5-409.7,1170.6-404,1170.6-396.5z M1178.4-396.5c0-5.7,1.2-9.9,3.7-12.8c2.5-2.8,5.6-4.2,9.4-4.2c3.7,0,6.9,1.4,9.3,4.3
							c2.5,2.8,3.7,7.2,3.7,13c0,5.5-1.3,9.7-3.8,12.5c-2.5,2.8-5.6,4.2-9.3,4.2c-3.8,0-6.9-1.4-9.4-4.2
							C1179.6-386.5,1178.4-390.8,1178.4-396.5z"/>
					</g>
					<g>
						<path class="st2" d="M1221-418.7v44.5h6.8v-6.7c1.7,3.2,3.3,5.2,4.8,6.2c1.5,1,3.1,1.5,4.8,1.5c2.5,0,5.1-0.8,7.7-2.4l-2.6-7
							c-1.8,1.1-3.7,1.6-5.5,1.6c-1.7,0-3.1-0.5-4.4-1.5c-1.3-1-2.2-2.4-2.8-4.1c-0.8-2.7-1.3-5.6-1.3-8.8v-23.3H1221z"/>
					</g>
					<g>
						<path class="st2" d="M1280.1-404.4l7.8-1c-1.2-4.5-3.5-8.1-6.8-10.6c-3.3-2.5-7.6-3.8-12.7-3.8c-6.5,0-11.7,2-15.5,6
							c-3.8,4-5.7,9.6-5.7,16.9c0,7.5,1.9,13.3,5.8,17.4c3.9,4.1,8.9,6.2,15,6.2c5.9,0,10.8-2,14.6-6.1s5.7-9.7,5.7-17.1
							c0-0.4,0-1.1,0-2h-33.2c0.3-4.9,1.7-8.6,4.1-11.2c2.5-2.6,5.6-3.9,9.3-3.9c2.8,0,5.1,0.7,7.1,2.2
							C1277.4-409.9,1278.9-407.5,1280.1-404.4z M1255.3-392.2h24.8c-0.3,3.7-1.3,6.5-2.8,8.4c-2.4,2.9-5.5,4.4-9.3,4.4
							c-3.5,0-6.4-1.2-8.7-3.5S1255.6-388.3,1255.3-392.2z"/>
					</g>
				</g>
			</g>
		</g>
		<g id="patch_3">
			<g>
				<defs>
					<rect id="SVGID_1_" x="89.9" y="37" width="239.2" height="233"/>
				</defs>
				<clipPath id="SVGID_2_">
					<use xlink:href="#SVGID_1_"  style="overflow:visible;"/>
				</clipPath>
				<path class="st3" d="M95.9,270.1h12V48.1h-12V270.1z"/>
			</g>
		</g>
		<g id="patch_4">
			<g>
				<defs>
					<rect id="SVGID_3_" x="89.9" y="37" width="239.2" height="233"/>
				</defs>
				<clipPath id="SVGID_4_">
					<use xlink:href="#SVGID_3_"  style="overflow:visible;"/>
				</clipPath>
				<path class="st4" d="M119.8,270.1h12V147.3h-12V270.1z"/>
			</g>
		</g>
		<g id="patch_5">
			<g>
				<defs>
					<rect id="SVGID_5_" x="89.9" y="37" width="239.2" height="233"/>
				</defs>
				<clipPath id="SVGID_6_">
					<use xlink:href="#SVGID_5_"  style="overflow:visible;"/>
				</clipPath>
				<path class="st5" d="M143.7,270.1h12V155.3h-12V270.1z"/>
			</g>
		</g>
		<g id="patch_6">
			<g>
				<defs>
					<rect id="SVGID_7_" x="89.9" y="37" width="239.2" height="233"/>
				</defs>
				<clipPath id="SVGID_8_">
					<use xlink:href="#SVGID_7_"  style="overflow:visible;"/>
				</clipPath>
				<path class="st6" d="M167.7,270.1h12v-87.2h-12V270.1z"/>
			</g>
		</g>
		<g id="patch_7">
			<g>
				<defs>
					<rect id="SVGID_9_" x="89.9" y="37" width="239.2" height="233"/>
				</defs>
				<clipPath id="SVGID_10_">
					<use xlink:href="#SVGID_9_"  style="overflow:visible;"/>
				</clipPath>
				<path class="st7" d="M191.6,270.1h12V202h-12V270.1z"/>
			</g>
		</g>
		<g id="patch_8">
			<g>
				<defs>
					<rect id="SVGID_11_" x="89.9" y="37" width="239.2" height="233"/>
				</defs>
				<clipPath id="SVGID_12_">
					<use xlink:href="#SVGID_11_"  style="overflow:visible;"/>
				</clipPath>
				<path class="st8" d="M215.5,270.1h12v-60.8h-12V270.1z"/>
			</g>
		</g>
		<g id="patch_9">
			<g>
				<defs>
					<rect id="SVGID_13_" x="89.9" y="37" width="239.2" height="233"/>
				</defs>
				<clipPath id="SVGID_14_">
					<use xlink:href="#SVGID_13_"  style="overflow:visible;"/>
				</clipPath>
				<path class="st9" d="M239.4,270.1h12v-45h-12V270.1z"/>
			</g>
		</g>
		<g id="patch_10">
			<g>
				<defs>
					<rect id="SVGID_15_" x="89.9" y="37" width="239.2" height="233"/>
				</defs>
				<clipPath id="SVGID_16_">
					<use xlink:href="#SVGID_15_"  style="overflow:visible;"/>
				</clipPath>
				<path class="st10" d="M263.4,270.1h12v-35.9h-12V270.1z"/>
			</g>
		</g>
		<g id="patch_11">
			<g>
				<defs>
					<rect id="SVGID_17_" x="89.9" y="37" width="239.2" height="233"/>
				</defs>
				<clipPath id="SVGID_18_">
					<use xlink:href="#SVGID_17_"  style="overflow:visible;"/>
				</clipPath>
				<path class="st11" d="M287.3,270.1h12v-35h-12V270.1z"/>
			</g>
		</g>
		<g id="patch_12">
			<g>
				<defs>
					<rect id="SVGID_19_" x="89.9" y="37" width="239.2" height="233"/>
				</defs>
				<clipPath id="SVGID_20_">
					<use xlink:href="#SVGID_19_"  style="overflow:visible;"/>
				</clipPath>
				<path class="st12" d="M311.2,270.1h12v-30.7h-12V270.1z"/>
			</g>
		</g>
		<g id="patch_13">
			<path class="st13" d="M89.9,270.1V37"/>
		</g>
		<g id="patch_14">
			<path class="st13" d="M329.1,270.1V37"/>
		</g>
		<g id="patch_15">
			<path class="st13" d="M89.9,270.1h239.2"/>
		</g>
		<g id="patch_16">
			<path class="st13" d="M89.9,37h239.2"/>
		</g>
		<g id="text_21">
			<g transform="translate(129.145312 37.2)scale(0.12 -0.12)">
				<g>
					<path class="st2" d="M281.4,44.2v61.4h41.4v-7.2h-33.3v-19h28.8v-7.2h-28.8V44.2H281.4z"/>
				</g>
				<g>
					<path class="st2" d="M362.8,58.5l7.8-1c-1.2-4.5-3.5-8.1-6.8-10.6c-3.3-2.5-7.6-3.8-12.7-3.8c-6.5,0-11.7,2-15.5,6
						c-3.8,4-5.7,9.6-5.7,16.9c0,7.5,1.9,13.3,5.8,17.4c3.9,4.1,8.9,6.2,15,6.2c5.9,0,10.8-2,14.6-6.1c3.8-4,5.7-9.7,5.7-17.1
						c0-0.4,0-1.1,0-2h-33.2c0.3-4.9,1.7-8.6,4.1-11.2c2.5-2.6,5.6-3.9,9.3-3.9c2.8,0,5.1,0.7,7.1,2.2
						C360.1,53,361.7,55.4,362.8,58.5z M338.1,70.7h24.8c-0.3,3.7-1.3,6.5-2.8,8.4c-2.4,2.9-5.5,4.4-9.3,4.4c-3.5,0-6.4-1.2-8.7-3.5
						C339.6,77.7,338.3,74.6,338.1,70.7z"/>
				</g>
				<g>
					<path class="st2" d="M409.1,49.7c-2.8-2.4-5.5-4-8.1-5c-2.6-1-5.3-1.5-8.3-1.5c-4.9,0-8.6,1.2-11.3,3.6
						c-2.6,2.4-3.9,5.4-3.9,9.1c0,2.2,0.5,4.2,1.5,6c1,1.8,2.3,3.3,3.9,4.3s3.4,1.9,5.4,2.5c1.5,0.4,3.7,0.8,6.7,1.1
						c6.1,0.7,10.6,1.6,13.4,2.6c0,1,0,1.7,0,2c0,3.1-0.7,5.2-2.1,6.5c-1.9,1.7-4.8,2.5-8.6,2.5c-3.5,0-6.2-0.6-7.9-1.9
						c-1.7-1.2-2.9-3.4-3.8-6.6l-7.4,1c0.7,3.2,1.8,5.7,3.3,7.6c1.5,1.9,3.8,3.4,6.7,4.5c2.9,1.1,6.3,1.6,10.1,1.6
						c3.8,0,6.9-0.4,9.2-1.3c2.4-0.9,4.1-2,5.2-3.4c1.1-1.3,1.9-3.1,2.3-5.1c0.3-1.3,0.4-3.6,0.4-6.9v-10c0-7,0.2-11.4,0.5-13.3
						c0.3-1.8,1-3.6,1.9-5.3h-7.9C409.8,45.8,409.3,47.6,409.1,49.7z M408.5,66.5c-2.7-1.1-6.8-2.1-12.3-2.9c-3.1-0.4-5.3-1-6.6-1.5
						c-1.3-0.6-2.3-1.4-3-2.4c-0.7-1.1-1-2.3-1-3.6c0-2,0.8-3.7,2.3-5c1.5-1.3,3.8-2,6.7-2c2.9,0,5.5,0.6,7.7,1.9
						c2.3,1.3,3.9,3,5,5.2c0.8,1.7,1.2,4.2,1.2,7.5V66.5z"/>
				</g>
				<g>
					<path class="st2" d="M444.2,50.9l1.1-6.7c-2.1-0.4-4-0.7-5.7-0.7c-2.7,0-4.9,0.4-6.4,1.3c-1.5,0.9-2.6,2-3.2,3.4
						c-0.6,1.4-0.9,4.4-0.9,8.9v25.6h-5.5v5.9h5.5v11l7.5,4.5V88.7h7.6v-5.9h-7.6v-26c0-2.2,0.1-3.5,0.4-4.2
						c0.3-0.6,0.7-1.1,1.3-1.5c0.6-0.4,1.5-0.5,2.6-0.5C441.7,50.7,442.8,50.8,444.2,50.9z"/>
				</g>
				<g>
					<path class="st2" d="M480.7,44.2v6.5c-3.5-5-8.2-7.5-14.1-7.5c-2.6,0-5.1,0.5-7.4,1.5c-2.3,1-4,2.3-5.1,3.8
						c-1.1,1.5-1.9,3.4-2.3,5.6c-0.3,1.5-0.5,3.8-0.5,7v27.5h7.5V64c0-3.9,0.2-6.6,0.5-8c0.5-2,1.5-3.5,3-4.7
						c1.5-1.1,3.4-1.7,5.7-1.7s4.4,0.6,6.4,1.7s3.4,2.7,4.2,4.7c0.8,2,1.2,4.9,1.2,8.7v23.8h7.5V44.2H480.7z"/>
				</g>
				<g>
					<path class="st2" d="M499.2,44.2v44.5h6.8v-6.7c1.7,3.2,3.3,5.2,4.8,6.2c1.5,1,3.1,1.5,4.8,1.5c2.5,0,5.1-0.8,7.7-2.4l-2.6-7
						c-1.8,1.1-3.7,1.6-5.5,1.6c-1.7,0-3.1-0.5-4.4-1.5s-2.2-2.4-2.8-4.1c-0.8-2.7-1.3-5.6-1.3-8.8V44.2H499.2z"/>
				</g>
				<g>
					<path class="st2" d="M558.2,58.5l7.8-1c-1.2-4.5-3.5-8.1-6.8-10.6c-3.3-2.5-7.6-3.8-12.7-3.8c-6.5,0-11.7,2-15.5,6
						c-3.8,4-5.7,9.6-5.7,16.9c0,7.5,1.9,13.3,5.8,17.4c3.9,4.1,8.9,6.2,15,6.2c5.9,0,10.8-2,14.6-6.1c3.8-4,5.7-9.7,5.7-17.1
						c0-0.4,0-1.1,0-2h-33.2c0.3-4.9,1.7-8.6,4.1-11.2c2.5-2.6,5.6-3.9,9.3-3.9c2.8,0,5.1,0.7,7.1,2.2
						C555.6,53,557.1,55.4,558.2,58.5z M533.5,70.7h24.8c-0.3,3.7-1.3,6.5-2.8,8.4c-2.4,2.9-5.5,4.4-9.3,4.4c-3.5,0-6.4-1.2-8.7-3.5
						C535.1,77.7,533.8,74.6,533.5,70.7z"/>
				</g>
				<g>
					<path class="st2" d="M569.8,44.2"/>
				</g>
				<g>
					<path class="st2" d="M601.7,44.2v61.4h8.1V44.2H601.7z"/>
				</g>
				<g>
					<path class="st2" d="M623.1,44.2v44.5h6.7v-6.2c1.4,2.2,3.2,3.9,5.6,5.3c2.3,1.3,5,2,7.9,2c3.3,0,6-0.7,8.1-2s3.6-3.3,4.5-5.7
						c3.5,5.2,8.1,7.8,13.7,7.8c4.4,0,7.8-1.2,10.2-3.7c2.4-2.4,3.6-6.2,3.6-11.3V44.2h-7.5v28c0,3-0.2,5.2-0.7,6.5
						c-0.5,1.3-1.4,2.4-2.7,3.2c-1.3,0.8-2.8,1.2-4.5,1.2c-3.1,0-5.7-1-7.8-3.1c-2.1-2.1-3.1-5.4-3.1-10V44.2h-7.5v28.9
						c0,3.3-0.6,5.9-1.8,7.5c-1.2,1.7-3.2,2.5-6,2.5c-2.1,0-4.1-0.6-5.9-1.7c-1.8-1.1-3.1-2.8-3.9-4.9c-0.8-2.1-1.2-5.2-1.2-9.3
						V44.2H623.1z"/>
				</g>
				<g>
					<path class="st2" d="M694.6,27.2v61.5h6.9v-5.8c1.6,2.3,3.5,4,5.5,5.1c2,1.1,4.5,1.7,7.4,1.7c3.8,0,7.1-1,10-2.9
						c2.9-2,5.1-4.7,6.6-8.3c1.5-3.6,2.2-7.5,2.2-11.7c0-4.5-0.8-8.6-2.5-12.3c-1.6-3.6-4-6.4-7.1-8.4c-3.1-1.9-6.4-2.9-9.8-2.9
						c-2.5,0-4.8,0.5-6.8,1.6c-2,1.1-3.6,2.4-4.9,4V27.2H694.6z M701.4,66.2c0-5.7,1.2-10,3.5-12.7c2.3-2.7,5.1-4.1,8.4-4.1
						c3.3,0,6.2,1.4,8.6,4.2c2.4,2.8,3.6,7.2,3.6,13.2c0,5.7-1.2,9.9-3.5,12.7c-2.3,2.8-5.1,4.2-8.3,4.2c-3.2,0-6.1-1.5-8.5-4.5
						C702.6,76.3,701.4,71.9,701.4,66.2z"/>
				</g>
				<g>
					<path class="st2" d="M739.4,66.4c0,8.2,2.3,14.3,6.9,18.3c3.8,3.3,8.5,4.9,14,4.9c6.1,0,11.1-2,15-6c3.9-4,5.8-9.5,5.8-16.6
						c0-5.7-0.9-10.2-2.6-13.5c-1.7-3.3-4.2-5.8-7.5-7.6c-3.3-1.8-6.9-2.7-10.7-2.7c-6.2,0-11.3,2-15.1,6
						C741.4,53.2,739.4,58.9,739.4,66.4z M747.2,66.4c0-5.7,1.2-9.9,3.7-12.8s5.6-4.2,9.4-4.2c3.7,0,6.9,1.4,9.3,4.3
						c2.5,2.8,3.7,7.2,3.7,13c0,5.5-1.3,9.7-3.8,12.5c-2.5,2.8-5.6,4.2-9.3,4.2c-3.8,0-6.9-1.4-9.4-4.2
						C748.4,76.4,747.2,72.1,747.2,66.4z"/>
				</g>
				<g>
					<path class="st2" d="M789.8,44.2v44.5h6.8v-6.7c1.7,3.2,3.3,5.2,4.8,6.2c1.5,1,3.1,1.5,4.8,1.5c2.5,0,5.1-0.8,7.7-2.4l-2.6-7
						c-1.8,1.1-3.7,1.6-5.5,1.6c-1.7,0-3.1-0.5-4.4-1.5s-2.2-2.4-2.8-4.1c-0.8-2.7-1.3-5.6-1.3-8.8V44.2H789.8z"/>
				</g>
				<g>
					<path class="st2" d="M834.9,50.9l1.1-6.7c-2.1-0.4-4-0.7-5.7-0.7c-2.7,0-4.9,0.4-6.4,1.3c-1.5,0.9-2.6,2-3.2,3.4
						c-0.6,1.4-0.9,4.4-0.9,8.9v25.6h-5.5v5.9h5.5v11l7.5,4.5V88.7h7.6v-5.9h-7.6v-26c0-2.2,0.1-3.5,0.4-4.2
						c0.3-0.6,0.7-1.1,1.3-1.5c0.6-0.4,1.5-0.5,2.6-0.5C832.5,50.7,833.6,50.8,834.9,50.9z"/>
				</g>
				<g>
					<path class="st2" d="M871.3,49.7c-2.8-2.4-5.5-4-8.1-5c-2.6-1-5.3-1.5-8.3-1.5c-4.9,0-8.6,1.2-11.3,3.6
						c-2.6,2.4-3.9,5.4-3.9,9.1c0,2.2,0.5,4.2,1.5,6c1,1.8,2.3,3.3,3.9,4.3s3.4,1.9,5.4,2.5c1.5,0.4,3.7,0.8,6.7,1.1
						c6.1,0.7,10.6,1.6,13.4,2.6c0,1,0,1.7,0,2c0,3.1-0.7,5.2-2.1,6.5c-1.9,1.7-4.8,2.5-8.6,2.5c-3.5,0-6.2-0.6-7.9-1.9
						c-1.7-1.2-2.9-3.4-3.8-6.6l-7.4,1c0.7,3.2,1.8,5.7,3.3,7.6c1.5,1.9,3.8,3.4,6.7,4.5c2.9,1.1,6.3,1.6,10.1,1.6
						c3.8,0,6.9-0.4,9.2-1.3c2.4-0.9,4.1-2,5.2-3.4c1.1-1.3,1.9-3.1,2.3-5.1c0.3-1.3,0.4-3.6,0.4-6.9v-10c0-7,0.2-11.4,0.5-13.3
						c0.3-1.8,1-3.6,1.9-5.3h-7.9C872,45.8,871.5,47.6,871.3,49.7z M870.7,66.5c-2.7-1.1-6.8-2.1-12.3-2.9c-3.1-0.4-5.3-1-6.6-1.5
						c-1.3-0.6-2.3-1.4-3-2.4c-0.7-1.1-1-2.3-1-3.6c0-2,0.8-3.7,2.3-5c1.5-1.3,3.8-2,6.7-2c2.9,0,5.5,0.6,7.7,1.9
						c2.3,1.3,3.9,3,5,5.2c0.8,1.7,1.2,4.2,1.2,7.5V66.5z"/>
				</g>
				<g>
					<path class="st2" d="M890,44.2v44.5h6.8v-6.3c3.3,4.9,8,7.3,14.1,7.3c2.7,0,5.1-0.5,7.4-1.4c2.3-1,3.9-2.2,5.1-3.8
						c1.1-1.6,1.9-3.4,2.3-5.6c0.3-1.4,0.4-3.8,0.4-7.3V44.2h-7.5v27c0,3.1-0.3,5.4-0.9,6.9c-0.6,1.5-1.6,2.7-3.1,3.6
						c-1.5,0.9-3.2,1.4-5.3,1.4c-3.2,0-6-1-8.3-3.1c-2.3-2-3.5-5.9-3.5-11.6V44.2H890z"/>
				</g>
				<g>
					<path class="st2" d="M966.7,60.5l7.4-1c-0.8-5.1-2.9-9.1-6.2-12c-3.3-2.9-7.4-4.3-12.3-4.3c-6.1,0-11,2-14.7,6
						c-3.7,4-5.5,9.7-5.5,17.1c0,4.8,0.8,9,2.4,12.6c1.6,3.6,4,6.3,7.3,8.1c3.3,1.8,6.8,2.7,10.6,2.7c4.8,0,8.8-1.2,11.8-3.7
						c3.1-2.4,5-5.9,5.9-10.4l-7.3-1.1c-0.7,3-1.9,5.2-3.7,6.7c-1.8,1.5-3.9,2.3-6.4,2.3c-3.8,0-6.9-1.4-9.3-4.1
						c-2.4-2.7-3.6-7-3.6-12.9c0-6,1.1-10.3,3.4-13c2.3-2.7,5.3-4.1,9-4.1c3,0,5.4,0.9,7.4,2.7C964.9,53.9,966.1,56.7,966.7,60.5z"
						/>
				</g>
				<g>
					<path class="st2" d="M1011,58.5l7.8-1c-1.2-4.5-3.5-8.1-6.8-10.6c-3.3-2.5-7.6-3.8-12.7-3.8c-6.5,0-11.7,2-15.5,6
						c-3.8,4-5.7,9.6-5.7,16.9c0,7.5,1.9,13.3,5.8,17.4c3.9,4.1,8.9,6.2,15,6.2c5.9,0,10.8-2,14.6-6.1c3.8-4,5.7-9.7,5.7-17.1
						c0-0.4,0-1.1,0-2h-33.2c0.3-4.9,1.7-8.6,4.1-11.2c2.5-2.6,5.6-3.9,9.3-3.9c2.8,0,5.1,0.7,7.1,2.2
						C1008.3,53,1009.8,55.4,1011,58.5z M986.2,70.7h24.8c-0.3,3.7-1.3,6.5-2.8,8.4c-2.4,2.9-5.5,4.4-9.3,4.4
						c-3.5,0-6.4-1.2-8.7-3.5C987.8,77.7,986.5,74.6,986.2,70.7z"/>
				</g>
				<g>
					<path class="st2" d="M1025.2,57.5l7.4,1.2c0.4-3,1.6-5.3,3.5-6.9s4.6-2.4,8-2.4c3.5,0,6,0.7,7.7,2.1c1.7,1.4,2.5,3.1,2.5,5
						c0,1.7-0.7,3-2.2,4c-1,0.7-3.6,1.5-7.7,2.5c-5.5,1.4-9.3,2.6-11.5,3.6c-2.1,1-3.8,2.4-4.9,4.2c-1.1,1.8-1.6,3.8-1.6,6
						c0,2,0.5,3.8,1.4,5.5c0.9,1.7,2.1,3.1,3.7,4.2c1.2,0.9,2.8,1.6,4.8,2.2c2,0.6,4.2,0.9,6.5,0.9c3.5,0,6.5-0.5,9.2-1.5
						c2.6-1,4.6-2.4,5.8-4.1c1.3-1.7,2.1-4,2.6-6.9l-7.4-1c-0.3,2.3-1.3,4.1-2.9,5.3c-1.6,1.3-3.9,1.9-6.8,1.9
						c-3.5,0-5.9-0.6-7.4-1.7c-1.5-1.1-2.2-2.5-2.2-4c0-1,0.3-1.9,0.9-2.6c0.6-0.8,1.6-1.5,2.9-2c0.8-0.3,3-0.9,6.7-1.9
						c5.3-1.4,9-2.6,11.1-3.5c2.1-0.9,3.8-2.2,5-4c1.2-1.7,1.8-3.9,1.8-6.4c0-2.5-0.7-4.9-2.2-7.1c-1.5-2.2-3.6-3.9-6.3-5.1
						c-2.8-1.2-5.9-1.8-9.4-1.8c-5.8,0-10.2,1.2-13.2,3.6S1026,52.8,1025.2,57.5z"/>
				</g>
			</g>
		</g>
	</g>
</g>
</svg>
